<svg width="175" height="58" viewBox="0 0 175 58" fill="none" xmlns="http://www.w3.org/2000/svg">
<g clip-path="url(#clip0_1044_3972)">
<path d="M110.419 25.3432H101.725V10.5088H98.082V28.831H110.419V25.3432Z" fill="white"/>
<path d="M127.984 20.9831C128.485 20.3836 128.86 19.6904 129.085 18.945C129.314 18.2104 129.432 17.4465 129.437 16.6778C129.468 15.5337 129.183 14.4028 128.612 13.4079C128.046 12.455 127.202 11.6947 126.19 11.228C124.979 10.6817 123.658 10.417 122.328 10.4541H116.715V28.7763H120.369V23.0323H122.977C124.018 23.0647 125.054 22.8751 126.014 22.4764C126.783 22.1434 127.459 21.6311 127.984 20.9831ZM125.618 17.6042C125.527 17.9347 125.374 18.2451 125.167 18.5197C124.941 18.8254 124.647 19.0752 124.309 19.25C123.876 19.4419 123.406 19.535 122.933 19.5225H120.369V13.9965H122.977C123.498 13.9717 124.018 14.0806 124.485 14.3126C124.834 14.5013 125.13 14.7752 125.343 15.1083C125.513 15.4027 125.632 15.7233 125.695 16.0565C125.752 16.2924 125.785 16.5335 125.794 16.7759C125.777 17.0591 125.718 17.3383 125.618 17.6042Z" fill="white"/>
<path d="M138.835 21.3851H147.101V28.8295H150.743V10.5073H147.101V17.9081H138.835V10.5073H135.192V28.8295H138.835V21.3851Z" fill="white"/>
<path d="M79.9787 45.5396L77.5246 39.4468H76.1709L79.9127 48.2646L83.6766 39.4468H82.3449L79.9787 45.5396Z" fill="white"/>
<path d="M87.7041 44.188H91.6221V43.0981H87.7041V40.5367H92.0953V39.4468H86.5596V47.883H92.2603V46.804H87.7041V44.188Z" fill="white"/>
<path d="M101.725 45.5495L95.474 39.1951H95.4189V47.8819H96.5635L96.5415 41.8654L102.793 48.1544H102.826V39.4457H101.703L101.725 45.5495Z" fill="white"/>
<path d="M105.83 40.5367H108.064V47.883H109.198V40.5367H111.487V39.4468H105.83V40.5367Z" fill="white"/>
<path d="M119.641 44.8965C119.643 45.2563 119.548 45.6098 119.366 45.9211C119.189 46.2161 118.934 46.4574 118.629 46.6186C118.291 46.7994 117.912 46.8896 117.528 46.8802C117.166 46.8857 116.809 46.7955 116.494 46.6186C116.19 46.4543 115.936 46.2137 115.756 45.9211C115.569 45.6119 115.474 45.2568 115.481 44.8965V39.4468H114.381V44.8965C114.368 45.4636 114.517 46.0225 114.81 46.5097C115.066 46.9682 115.448 47.3458 115.91 47.5996C116.406 47.8537 116.959 47.981 117.517 47.9703C118.079 47.9796 118.634 47.8524 119.135 47.5996C119.595 47.3417 119.975 46.9651 120.235 46.5097C120.529 46.0225 120.677 45.4636 120.665 44.8965V39.4468H119.564L119.641 44.8965Z" fill="white"/>
<path d="M128.92 43.9153C129.138 43.6613 129.3 43.364 129.393 43.0433C129.498 42.7268 129.55 42.3954 129.547 42.0624C129.552 41.6866 129.473 41.3144 129.316 40.9723C129.172 40.6531 128.953 40.3728 128.678 40.1549C128.399 39.9204 128.072 39.7494 127.72 39.6536C127.336 39.5306 126.935 39.4716 126.532 39.4792H124.275V47.9154H125.376V44.809H126.972L128.975 47.9263H130.273L128.127 44.5147C128.428 44.3678 128.697 44.1641 128.92 43.9153ZM126.653 43.6973H125.42V40.5363H126.73C126.99 40.5263 127.25 40.5747 127.489 40.678C127.686 40.7691 127.859 40.9033 127.995 41.0705C128.126 41.2193 128.224 41.3939 128.281 41.5827C128.337 41.7516 128.367 41.9282 128.369 42.1059C128.369 42.2831 128.343 42.4593 128.292 42.6292C128.237 42.8197 128.143 42.9976 128.017 43.1523C127.877 43.3249 127.696 43.4599 127.489 43.5447C127.224 43.6536 126.939 43.7056 126.653 43.6973Z" fill="white"/>
<path d="M134.356 44.188H138.285V43.0981H134.356V40.5367H138.758V39.4468H133.223V47.883H138.923V46.804H134.356V44.188Z" fill="white"/>
<path d="M152.889 40.841C152.49 40.4023 151.997 40.0561 151.447 39.8273C150.766 39.5564 150.036 39.4266 149.301 39.4457H146.979V47.882H149.72C150.265 47.8837 150.804 47.7878 151.315 47.5987C151.817 47.4136 152.278 47.1321 152.668 46.7703C153.069 46.4096 153.384 45.967 153.593 45.4732C153.83 44.9339 153.947 44.3502 153.935 43.762C153.933 43.2459 153.843 42.7339 153.67 42.247C153.507 41.7314 153.242 41.2533 152.889 40.841ZM152.515 45.0154C152.359 45.3824 152.122 45.71 151.821 45.9746C151.525 46.2503 151.173 46.4587 150.787 46.585C150.369 46.7285 149.93 46.7986 149.488 46.7921H148.123V40.5357H149.598C150.004 40.5318 150.406 40.6021 150.787 40.7428C151.16 40.872 151.504 41.0719 151.8 41.3314C152.103 41.6075 152.344 41.946 152.504 42.3232C152.849 43.1881 152.849 44.1507 152.504 45.0154H152.515Z" fill="white"/>
<path d="M159.449 39.0967L155.718 47.8817H156.818L157.732 45.7019H161.033L161.903 47.8817H163.212L159.503 39.0967H159.449ZM158.161 44.6882L159.426 41.6037L160.648 44.6882H158.161Z" fill="white"/>
<path d="M173.381 42.0285C173.152 41.5115 172.827 41.0418 172.422 40.6443C172.03 40.2416 171.558 39.9225 171.036 39.707C170.512 39.4661 169.942 39.3433 169.364 39.3473C168.778 39.3433 168.2 39.466 167.668 39.707C167.152 39.9255 166.684 40.2442 166.293 40.6443C165.893 41.0424 165.571 41.5121 165.346 42.0285C165.126 42.5457 165.013 43.102 165.017 43.6636C165.008 44.2502 165.122 44.8323 165.346 45.3748C165.8 46.397 166.631 47.2085 167.668 47.6419C168.206 47.8607 168.783 47.9718 169.364 47.969C169.931 47.9712 170.494 47.8627 171.019 47.6494C171.544 47.4363 172.02 47.1225 172.422 46.7263C172.824 46.3308 173.149 45.8652 173.381 45.353C173.611 44.8195 173.727 44.2441 173.721 43.6636C173.727 43.1007 173.61 42.5433 173.381 42.0285ZM172.279 44.9279C172.116 45.3014 171.889 45.6443 171.608 45.9416C171.325 46.2386 170.984 46.4758 170.607 46.6391C170.213 46.8046 169.791 46.8899 169.364 46.8899C168.936 46.8899 168.514 46.8046 168.12 46.6391C167.738 46.4761 167.395 46.2389 167.107 45.9416C166.514 45.3371 166.179 44.5287 166.172 43.6854C166.167 43.2558 166.249 42.8294 166.413 42.432C166.562 42.044 166.791 41.6913 167.086 41.3964C167.375 41.099 167.718 40.8587 168.097 40.688C168.491 40.5205 168.914 40.4351 169.342 40.4373C169.766 40.4351 170.185 40.5205 170.574 40.688C170.957 40.8543 171.304 41.091 171.598 41.3855C171.894 41.7017 172.126 42.0719 172.279 42.4755C172.603 43.2807 172.603 44.1773 172.279 44.9825V44.9279Z" fill="white"/>
<path d="M84.3366 9.81128L76.0166 28.7984H79.6483L81.1561 25.2233H87.275L88.6947 28.7984H92.8547L84.5347 9.81128H84.3366ZM82.3666 22.1932L84.2485 17.7461L86.0094 22.1932L84.2265 21.2013L82.3666 22.1932Z" fill="white"/>
<path d="M164.29 9.81128L155.971 28.7984H159.547L161.055 25.2233H167.174L168.594 28.7984H172.809L164.489 9.81128H164.29ZM162.322 22.1932L164.203 17.7461L165.974 22.1932L164.181 21.2013L162.322 22.1932Z" fill="white"/>
<path d="M29.5963 57.2347C45.3993 57.2347 58.2101 44.5469 58.2101 28.8958C58.2101 13.2446 45.3993 0.556885 29.5963 0.556885C13.7933 0.556885 0.982422 13.2446 0.982422 28.8958C0.982422 44.5469 13.7933 57.2347 29.5963 57.2347Z" fill="white"/>
<path d="M29.5967 11.7334V22.9769L31.6547 28.0397L29.5967 26.3302V31.7218C29.5967 31.7218 29.5967 31.7218 29.6631 31.7876C32.9826 35.8643 37.0987 39.2834 41.746 41.7819L29.5967 11.7334Z" fill="url(#paint0_linear_1044_3972)"/>
<path d="M29.5956 11.7334V22.9769L27.5375 28.0397L29.5956 26.3302V31.7218C29.5956 31.7218 29.5956 31.7218 29.5292 31.7876C26.2097 35.8643 22.0936 39.2834 17.4463 41.7819L29.5956 11.7334Z" fill="url(#paint1_linear_1044_3972)"/>
<path d="M29.5969 38.6905C31.1369 38.6905 32.3853 37.4541 32.3853 35.9289C32.3853 34.4037 31.1369 33.1672 29.5969 33.1672C28.0569 33.1672 26.8086 34.4037 26.8086 35.9289C26.8086 37.4541 28.0569 38.6905 29.5969 38.6905Z" fill="#F5CC02"/>
</g>
<defs>
<linearGradient id="paint0_linear_1044_3972" x1="35.6485" y1="11.6488" x2="35.6485" y2="42.1331" gradientUnits="userSpaceOnUse">
<stop stop-color="#000749"/>
<stop offset="1" stop-color="#000749" stop-opacity="0.6"/>
</linearGradient>
<linearGradient id="paint1_linear_1044_3972" x1="23.5037" y1="41.9207" x2="23.5037" y2="12.004" gradientUnits="userSpaceOnUse">
<stop stop-color="#000749"/>
<stop offset="1" stop-color="#000749" stop-opacity="0.6"/>
</linearGradient>
<clipPath id="clip0_1044_3972">
<rect width="173.114" height="56.6778" fill="white" transform="translate(0.982422 0.556885)"/>
</clipPath>
</defs>
</svg>
