<svg width="200" height="44" viewBox="0 0 200 44" fill="none" xmlns="http://www.w3.org/2000/svg">
<path d="M76.5255 34.5922H69.5652V15.1589H76.5773C78.5437 15.1589 80.2515 15.543 81.6746 16.3111C83.0977 17.0792 84.2103 18.2058 84.9607 19.6396C85.7369 21.099 86.0992 22.8145 86.0992 24.8372C86.0992 26.8599 85.7111 28.6009 84.9348 30.0603C84.1586 31.5198 83.0718 32.6207 81.6228 33.4144C80.2256 34.2081 78.5179 34.5922 76.5255 34.5922ZM73.7052 31.0589H76.3444C78.1815 31.0589 79.5787 30.5724 80.5361 29.5739C81.4935 28.6009 81.9592 27.0135 81.9592 24.8372C81.9592 22.6864 81.4935 21.1246 80.5361 20.1261C79.5787 19.1531 78.1815 18.6667 76.3444 18.6667H73.7052V31.0589Z" fill="white"/>
<path d="M89.2041 34.5922H84.7537L91.5329 15.1846H96.8889L103.642 34.5922H99.1918L97.7428 30.1628H90.6531L89.2041 34.5922ZM91.714 26.9623H96.7078L94.3014 19.614H94.1462L91.714 26.9623Z" fill="white"/>
<path d="M120.668 24.8885C120.668 27.0136 120.254 28.8058 119.452 30.2909C118.65 31.7759 117.537 32.9024 116.166 33.6962C114.769 34.4643 113.216 34.8739 111.482 34.8739C109.749 34.8739 108.17 34.4899 106.799 33.6962C105.402 32.9024 104.315 31.7759 103.513 30.2909C102.711 28.8058 102.297 27.0136 102.297 24.9141C102.297 22.7889 102.711 20.9967 103.513 19.5117C104.315 18.0266 105.402 16.9001 106.799 16.1064C108.196 15.3382 109.749 14.9286 111.482 14.9286C113.216 14.9286 114.769 15.3126 116.166 16.1064C117.563 16.8745 118.65 18.0266 119.452 19.5117C120.28 20.9455 120.668 22.7633 120.668 24.8885ZM116.476 24.8885C116.476 22.8402 116.011 21.2527 115.105 20.1774C114.199 19.102 112.983 18.5387 111.482 18.5387C109.982 18.5387 108.766 19.0764 107.86 20.1774C106.954 21.2783 106.489 22.8402 106.489 24.8885C106.489 26.9368 106.954 28.5242 107.86 29.5996C108.766 30.6749 109.982 31.2382 111.482 31.2382C112.983 31.2382 114.199 30.7005 115.105 29.5996C116.011 28.4986 116.476 26.9368 116.476 24.8885Z" fill="white"/>
<path d="M126.231 15.1589H131.354L136.762 28.2169H136.995L142.403 15.1589H147.5V34.5922H143.464V21.9439H143.308L138.237 34.4898H135.494L130.423 21.8927H130.267V34.5922H126.231V15.1589Z" fill="white"/>
<path d="M153.529 34.8484C152.132 34.8484 150.967 34.4899 150.036 33.7474C149.104 33.0305 148.639 31.9296 148.639 30.4957C148.639 29.4204 148.897 28.5499 149.415 27.9354C149.932 27.3209 150.605 26.86 151.459 26.5784C152.287 26.2967 153.193 26.0919 154.176 26.0151C155.444 25.8871 156.375 25.759 156.919 25.6054C157.462 25.4518 157.747 25.1702 157.747 24.6837V24.6325C157.747 24.0436 157.565 23.5571 157.177 23.2499C156.789 22.917 156.272 22.7634 155.573 22.7634C154.849 22.7634 154.253 22.917 153.814 23.2499C153.374 23.5571 153.089 23.9668 152.96 24.4533L149.182 24.146C149.467 22.8146 150.165 21.7649 151.278 20.9967C152.39 20.2286 153.839 19.819 155.599 19.819C156.686 19.819 157.721 19.9982 158.652 20.331C159.61 20.6639 160.36 21.2016 160.955 21.9185C161.55 22.6354 161.835 23.5827 161.835 24.7349V34.5923H157.954V32.5696H157.85C157.488 33.2353 156.97 33.7986 156.246 34.2339C155.521 34.6436 154.616 34.8484 153.529 34.8484ZM154.693 32.0832C155.599 32.0832 156.323 31.8271 156.893 31.3151C157.462 30.803 157.747 30.1629 157.747 29.3948V27.8586C157.591 27.961 157.333 28.0634 156.996 28.1402C156.66 28.217 156.298 28.2938 155.935 28.345C155.547 28.3962 155.211 28.4474 154.926 28.4986C154.202 28.6011 153.632 28.8059 153.193 29.0875C152.753 29.3948 152.546 29.83 152.546 30.3933C152.546 30.9566 152.753 31.3663 153.167 31.6479C153.555 31.9296 154.072 32.0832 154.693 32.0832Z" fill="white"/>
<path d="M163.387 34.5922V15.1589H167.475V25.5285H167.708L172.417 19.9981H177.101L171.641 26.2966L177.385 34.5666H172.599L168.562 28.7033L167.45 29.9579V34.5922H163.387Z" fill="white"/>
<path d="M183.285 34.8739C181.784 34.8739 180.49 34.5667 179.378 33.9522C178.291 33.3377 177.437 32.4671 176.868 31.3662C176.273 30.2396 175.988 28.9082 175.988 27.372C175.988 25.887 176.273 24.5556 176.868 23.429C177.463 22.3024 178.291 21.4063 179.352 20.7918C180.413 20.1517 181.681 19.8445 183.129 19.8445C184.423 19.8445 185.588 20.1261 186.648 20.6638C187.683 21.2015 188.511 22.0208 189.132 23.1218C189.753 24.2227 190.064 25.5797 190.064 27.244V28.3449H180.05C180.05 29.4203 180.361 30.2908 180.956 30.9053C181.551 31.5198 182.379 31.8527 183.388 31.8527C184.061 31.8527 184.656 31.699 185.148 31.4174C185.639 31.1357 186.002 30.7005 186.209 30.1628L189.986 30.4188C189.702 31.7758 188.977 32.8512 187.813 33.6705C186.623 34.4642 185.122 34.8739 183.285 34.8739ZM180.025 25.8358H186.209C186.209 24.9652 185.924 24.2483 185.355 23.685C184.785 23.1218 184.087 22.8401 183.181 22.8401C182.276 22.8401 181.525 23.1218 180.956 23.7107C180.387 24.2995 180.076 25.0164 180.025 25.8358Z" fill="white"/>
<path d="M191.073 34.5923V20.0238H195.032V22.5586H195.187C195.446 21.6624 195.912 20.9711 196.533 20.5103C197.154 20.0494 197.904 19.819 198.706 19.819C199.172 19.819 199.586 19.8702 200 19.9726V23.5571C199.819 23.5059 199.534 23.4547 199.198 23.4035C198.862 23.3523 198.551 23.3523 198.266 23.3523C197.361 23.3523 196.61 23.6339 196.041 24.1972C195.446 24.7605 195.161 25.4774 195.161 26.3735V34.5923H191.073Z" fill="white"/>
<path d="M0.790527 43.9242L20.392 7.61588L37.677 0L18.0755 36.3083L0.790527 43.9242Z" fill="url(#paint0_linear_185_37146)"/>
<path d="M20.3413 35.625L35.2334 8.0459L43.6849 16.3449L28.9965 44L20.3413 35.625Z" fill="url(#paint1_linear_185_37146)"/>
<path d="M45.3394 17.1802L56.362 21.1779L50.8634 31.2481L37.4988 31.7035L45.3394 17.1802Z" fill="url(#paint2_linear_185_37146)"/>
<defs>
<linearGradient id="paint0_linear_185_37146" x1="0.830219" y1="43.8976" x2="57.3895" y2="-0.430964" gradientUnits="userSpaceOnUse">
<stop stop-color="#48D5FF"/>
<stop offset="1" stop-color="#1FA5FF"/>
</linearGradient>
<linearGradient id="paint1_linear_185_37146" x1="1.32299" y1="44.0198" x2="60.2398" y2="-0.44479" gradientUnits="userSpaceOnUse">
<stop stop-color="#48D5FF"/>
<stop offset="1" stop-color="#1FA5FF"/>
</linearGradient>
<linearGradient id="paint2_linear_185_37146" x1="1.07652" y1="43.8367" x2="58.211" y2="0.458886" gradientUnits="userSpaceOnUse">
<stop stop-color="#48D5FF"/>
<stop offset="1" stop-color="#1FA5FF"/>
</linearGradient>
</defs>
</svg>
