<svg width="182" height="60" viewBox="0 0 182 60" fill="none" xmlns="http://www.w3.org/2000/svg">
<path d="M28.4847 22.8403C42.9925 22.8403 54.7535 26.3055 54.7535 30.5801C54.7535 16.0723 42.9925 4.31128 28.4847 4.31128C13.9769 4.31128 2.21582 16.0723 2.21582 30.5801C2.21582 26.3055 13.9769 22.8403 28.4847 22.8403Z" fill="url(#paint0_linear)"/>
<path d="M28.4847 38.319C13.9769 38.319 2.21582 34.8546 2.21582 30.5801C2.21582 45.0879 13.9769 56.8481 28.4847 56.8481C42.9925 56.8481 54.7535 45.0897 54.7535 30.5801C54.7535 34.8546 42.9925 38.319 28.4847 38.319Z" fill="url(#paint1_linear)"/>
<path d="M28.4847 38.3199C42.9926 38.3199 54.7535 34.8547 54.7535 30.5801C54.7535 26.3056 42.9926 22.8403 28.4847 22.8403C13.9768 22.8403 2.21582 26.3056 2.21582 30.5801C2.21582 34.8547 13.9768 38.3199 28.4847 38.3199Z" fill="url(#paint2_linear)"/>
<path d="M79.7155 21.7086C79.7269 22.7879 79.5264 23.8591 79.1254 24.8612C78.7491 25.7986 78.1845 26.6488 77.4664 27.3592C76.7279 28.0774 75.8499 28.6366 74.8868 29.002C73.8181 29.4068 72.6828 29.607 71.54 29.5921H65.4197C65.5661 24.3098 65.2966 19.058 65.4197 13.8367H71.54C72.6831 13.8219 73.8187 14.0236 74.8868 14.4313C75.8487 14.8009 76.7261 15.3609 77.4664 16.0777C78.1851 16.7855 78.7499 17.634 79.1254 18.5702C79.5252 19.5678 79.7257 20.6339 79.7155 21.7086V21.7086ZM75.9736 21.7086C75.9831 20.9944 75.881 20.2831 75.6709 19.6005C75.4918 19.0153 75.1957 18.4726 74.8005 18.0053C74.4204 17.5683 73.945 17.2244 73.411 17.0002C72.8178 16.7568 72.1812 16.637 71.54 16.6481H69.0969V26.7807H71.54C72.1812 26.7918 72.8178 26.672 73.411 26.4286C73.9452 26.2047 74.4207 25.8608 74.8005 25.4235C75.1957 24.9562 75.4918 24.4135 75.6709 23.8283C75.8816 23.1418 75.9837 22.4266 75.9736 21.7086V21.7086Z" fill="white"/>
<path d="M88.4731 13.8364H84.7321L78.6333 29.5918H81.4878C81.7624 29.6006 82.0316 29.5147 82.2503 29.3484C82.4388 29.2077 82.5861 29.0192 82.677 28.8023L83.6075 26.0556L88.765 23.5685H84.4536L85.9024 19.2759C86.0102 19.0017 86.1255 18.6771 86.2482 18.3023C86.371 17.9274 86.4862 17.5203 86.594 17.0807C86.7174 17.5131 86.8401 17.9149 86.9623 18.2861C87.0844 18.6574 87.1988 18.9801 87.3054 19.2544L88.765 23.5658L89.5976 26.0529L90.5272 28.7996C90.6236 29.024 90.7765 29.2196 90.9709 29.3673C91.1952 29.5244 91.4654 29.6025 91.7389 29.5891H94.5718L88.4731 13.8364Z" fill="white"/>
<path d="M108.615 29.5918H105.306C104.692 29.5918 104.253 29.361 103.987 28.8993L101.37 24.3257C101.271 24.1361 101.116 23.981 100.927 23.8806C100.738 23.7803 100.523 23.7394 100.31 23.7634H99.3798V29.5918H95.725V13.8364H100.851C101.989 13.8364 102.96 13.9538 103.765 14.1885C104.57 14.4233 105.226 14.7493 105.733 15.1667C106.221 15.5587 106.603 16.0683 106.841 16.6478C107.076 17.2396 107.193 17.8714 107.187 18.508C107.19 18.9984 107.121 19.4865 106.982 19.9568C106.847 20.4048 106.643 20.8291 106.377 21.2143C106.103 21.6071 105.769 21.9552 105.389 22.2463C104.975 22.5607 104.517 22.8125 104.03 22.9936C104.271 23.1189 104.497 23.2733 104.701 23.4535C104.917 23.6453 105.106 23.8653 105.263 24.1074L108.615 29.5918ZM100.851 21.2439C101.282 21.2544 101.712 21.1903 102.121 21.0544C102.443 20.9455 102.737 20.7663 102.981 20.5299C103.202 20.3104 103.369 20.0418 103.467 19.7457C103.57 19.4337 103.622 19.1069 103.619 18.7784C103.619 18.0867 103.394 17.546 102.943 17.1562C102.492 16.7664 101.795 16.5718 100.851 16.5724H99.3798V21.243L100.851 21.2439Z" fill="white"/>
<path d="M113.375 20.2166H113.908C114.402 20.2166 114.758 20.0471 114.975 19.7082L118.216 14.5615C118.369 14.3217 118.582 14.126 118.834 13.9938C119.094 13.8814 119.376 13.8278 119.659 13.8366H122.564L118.293 20.2094C117.991 20.6495 117.665 20.9669 117.315 21.1615C117.565 21.2615 117.796 21.404 117.997 21.5827C118.221 21.7876 118.414 22.0242 118.57 22.2851L122.918 29.5956H119.934C119.77 29.5981 119.606 29.5837 119.445 29.5525C119.322 29.5275 119.204 29.4835 119.094 29.4222C118.998 29.3668 118.911 29.2954 118.838 29.2112C118.76 29.1218 118.69 29.026 118.629 28.9246L115.369 23.4456C115.267 23.2598 115.11 23.1103 114.92 23.0181C114.686 22.9259 114.435 22.8837 114.184 22.8941H113.376V29.5983H110.035V13.8366H113.376L113.375 20.2166Z" fill="white"/>
<path d="M129.437 13.8364C130.512 13.8364 131.435 13.9682 132.206 14.2316C132.978 14.4951 133.613 14.8574 134.112 15.3185C134.603 15.7685 134.981 16.3279 135.216 16.9514C135.459 17.6014 135.581 18.2903 135.576 18.984C135.584 19.7208 135.46 20.4532 135.209 21.146C134.974 21.7888 134.59 22.3671 134.089 22.8337C133.586 23.3017 132.939 23.6421 132.179 23.9305C131.057 24.3616 128.652 24.3257 127.598 24.3257V29.5918H124.06V13.8364H129.437ZM129.437 21.5682C130.358 21.5682 131.021 21.3412 131.426 20.8873C131.831 20.4334 132.033 19.799 132.033 18.984C132.038 18.6481 131.985 18.3139 131.876 17.996C131.777 17.7091 131.614 17.4484 131.4 17.2334C131.171 17.0112 130.894 16.8433 130.592 16.7421C130.219 16.6189 129.827 16.5603 129.435 16.5688H127.591V21.5646L129.437 21.5682Z" fill="white"/>
<path d="M151.063 21.7084C151.072 22.7912 150.892 23.8673 150.53 24.888C150.198 25.8283 149.689 26.6964 149.031 27.4452C148.384 28.1729 147.59 28.7546 146.701 29.1518C145.744 29.5584 144.715 29.768 143.675 29.768C142.636 29.768 141.607 29.5584 140.65 29.1518C139.758 28.7553 138.96 28.1735 138.31 27.4452C137.648 26.6978 137.137 25.8294 136.805 24.888C136.095 22.828 136.095 20.5896 136.805 18.5296C137.137 17.5894 137.648 16.7227 138.31 15.9778C138.962 15.2538 139.759 14.6756 140.65 14.2811C141.603 13.8613 142.636 13.6512 143.678 13.665C144.718 13.651 145.75 13.863 146.701 14.2865C147.588 14.6862 148.382 15.2676 149.031 15.9931C149.69 16.7394 150.199 17.6058 150.53 18.5449C150.89 19.5603 151.071 20.6309 151.063 21.7084V21.7084ZM147.683 21.7084C147.693 20.9982 147.602 20.2902 147.413 19.6057C147.255 19.0319 146.989 18.4939 146.627 18.0212C146.292 17.5952 145.861 17.2545 145.37 17.0269C144.839 16.7887 144.262 16.6706 143.68 16.6811C143.093 16.67 142.51 16.7881 141.974 17.0269C141.482 17.2543 141.051 17.595 140.716 18.0212C140.355 18.4939 140.088 19.0319 139.93 19.6057C139.564 20.989 139.564 22.4439 139.93 23.8272C140.088 24.401 140.355 24.939 140.716 25.4117C141.05 25.837 141.481 26.1758 141.974 26.3997C142.511 26.635 143.093 26.7511 143.68 26.7401C144.261 26.7506 144.838 26.6344 145.37 26.3997C145.862 26.1756 146.293 25.8368 146.627 25.4117C146.989 24.939 147.255 24.401 147.413 23.8272C147.603 23.1373 147.694 22.4239 147.683 21.7084V21.7084Z" fill="white"/>
<path d="M166.976 21.7085C166.985 22.7914 166.805 23.8675 166.443 24.8882C166.112 25.8285 165.603 26.6965 164.944 27.4453C164.298 28.173 163.503 28.7548 162.614 29.1519C161.657 29.5585 160.628 29.7681 159.589 29.7681C158.549 29.7681 157.52 29.5585 156.563 29.1519C155.673 28.7549 154.877 28.1732 154.228 27.4453C153.566 26.6979 153.055 25.8296 152.723 24.8882C152.013 22.8282 152.013 20.5898 152.723 18.5298C153.053 17.5901 153.561 16.7234 154.222 15.978C154.872 15.2541 155.668 14.6757 156.557 14.2804C157.51 13.8606 158.543 13.6504 159.585 13.6642C160.626 13.6502 161.657 13.8623 162.608 14.2858C163.496 14.6855 164.289 15.2668 164.938 15.9924C165.597 16.7387 166.106 17.6051 166.437 18.5442C166.8 19.5595 166.982 20.6304 166.976 21.7085V21.7085ZM163.596 21.7085C163.606 20.9984 163.516 20.2904 163.327 19.6058C163.169 19.0321 162.902 18.4941 162.541 18.0214C162.206 17.5954 161.775 17.2547 161.283 17.0271C160.752 16.7889 160.175 16.6708 159.594 16.6813C159.006 16.6702 158.424 16.7883 157.887 17.0271C157.395 17.2544 156.964 17.5952 156.63 18.0214C156.268 18.4941 156.001 19.0321 155.844 19.6058C155.478 20.9892 155.478 22.444 155.844 23.8274C156.001 24.4011 156.268 24.9391 156.63 25.4118C156.964 25.8371 157.395 26.176 157.887 26.3998C158.425 26.6352 159.007 26.7513 159.594 26.7402C160.175 26.7507 160.751 26.6345 161.283 26.3998C161.775 26.1757 162.207 25.8369 162.541 25.4118C162.902 24.9391 163.169 24.4011 163.327 23.8274C163.516 23.1374 163.607 22.424 163.595 21.7085H163.596Z" fill="white"/>
<path d="M178.056 26.6762V29.5963H168.562V13.8364H172.217V26.6762H178.056Z" fill="white"/>
<path d="M75.1941 44.6542V47.5733H65.7001V31.8188H69.3549V44.6542H75.1941Z" fill="white"/>
<path d="M81.2694 47.5733H77.593V31.8188H81.2694V47.5733Z" fill="white"/>
<path d="M100.768 50.5258H97.7622C97.3683 50.5316 96.976 50.4749 96.5999 50.3578C96.2351 50.2318 95.9067 50.0184 95.6433 49.7363L93.6826 47.541C93.0334 47.682 92.3708 47.751 91.7065 47.7467C90.5597 47.7614 89.4211 47.5521 88.3544 47.1306C87.3898 46.752 86.5138 46.1782 85.7815 45.4451C85.0491 44.712 84.4762 43.8354 84.0987 42.8704C83.3131 40.8237 83.3131 38.5587 84.0987 36.512C84.4751 35.5573 85.0416 34.6891 85.764 33.9602C86.5034 33.2245 87.3848 32.6469 88.3544 32.2626C89.4209 31.8405 90.5596 31.6308 91.7065 31.6455C92.8522 31.6305 93.9895 31.8421 95.0532 32.268C96.0192 32.657 96.8964 33.2375 97.632 33.9746C98.3515 34.7047 98.9161 35.5726 99.2918 36.5264C99.6898 37.5347 99.8899 38.6103 99.8811 39.6943C99.8836 40.3508 99.8128 41.0054 99.67 41.6461C99.5356 42.2529 99.3325 42.8423 99.0646 43.403C98.8032 43.9494 98.4766 44.4621 98.0918 44.93C97.707 45.3952 97.2659 45.811 96.7787 46.1677L100.768 50.5258ZM87.2523 39.6907C87.2419 40.407 87.3441 41.1205 87.555 41.8051C87.7336 42.387 88.0299 42.926 88.4254 43.3886C88.8066 43.8227 89.2844 44.1611 89.8203 44.3767C90.4206 44.6128 91.0615 44.7285 91.7065 44.7171C92.3462 44.7282 92.9818 44.6125 93.5766 44.3767C94.1104 44.1601 94.5862 43.8218 94.9661 43.3886C95.3619 42.9262 95.6582 42.3871 95.8364 41.8051C96.24 40.4284 96.24 38.9648 95.8364 37.588C95.6582 37.0057 95.3619 36.4664 94.9661 36.0036C94.5857 35.5693 94.1102 35.2287 93.5766 35.0084C92.9826 34.7694 92.3467 34.6518 91.7065 34.6626C91.0611 34.6516 90.4199 34.7691 89.8203 35.0084C89.2846 35.2277 88.8071 35.5684 88.4254 36.0036C88.0299 36.4666 87.7336 37.0059 87.555 37.588C87.3446 38.2688 87.2424 38.9783 87.2523 39.6907V39.6907Z" fill="white"/>
<path d="M108.967 44.6866C109.417 44.6943 109.864 44.6115 110.281 44.4431C110.656 44.2887 110.991 44.0502 111.259 43.7461C111.538 43.4231 111.746 43.0456 111.87 42.6378C112.017 42.156 112.089 41.6541 112.081 41.1503V31.8188H115.736V41.1503C115.746 42.0588 115.587 42.9611 115.265 43.8108C114.968 44.5932 114.509 45.3041 113.918 45.8973C113.311 46.496 112.585 46.9602 111.787 47.2599C109.957 47.9099 107.959 47.9099 106.129 47.2599C105.333 46.9598 104.609 46.4959 104.004 45.8982C103.414 45.3052 102.958 44.5936 102.664 43.8108C102.347 42.9602 102.19 42.0582 102.2 41.1503V31.8188H105.855V41.1377C105.847 41.6415 105.918 42.1433 106.065 42.6252C106.191 43.0341 106.399 43.4131 106.677 43.739C106.944 44.0459 107.279 44.2864 107.655 44.4413C108.071 44.6102 108.518 44.6936 108.967 44.6866V44.6866Z" fill="white"/>
<path d="M122.363 47.5733H118.687V31.8188H122.363V47.5733Z" fill="white"/>
<path d="M139.97 39.6907C139.982 40.7697 139.782 41.8405 139.381 42.8425C139.005 43.7803 138.44 44.6306 137.721 45.3404C136.983 46.0592 136.106 46.6187 135.143 46.9841C134.074 47.3885 132.939 47.5884 131.796 47.5734H125.676V31.8189H131.796C132.939 31.8042 134.075 32.006 135.143 32.4135C136.104 32.7823 136.981 33.3413 137.721 34.0572C138.441 34.7646 139.006 35.6133 139.381 36.5497C139.781 37.5482 139.981 38.6153 139.97 39.6907V39.6907ZM136.229 39.6907C136.239 38.9766 136.136 38.2654 135.927 37.5826C135.748 36.9974 135.452 36.4546 135.056 35.9874C134.676 35.5506 134.201 35.2065 133.667 34.9814C133.073 34.7389 132.437 34.6194 131.796 34.6302H129.352V44.762H131.796C132.437 44.7732 133.074 44.6537 133.667 44.4108C134.201 44.186 134.676 43.8419 135.056 43.4048C135.452 42.9379 135.748 42.3955 135.927 41.8105C136.137 41.1238 136.239 40.4087 136.229 39.6907V39.6907Z" fill="white"/>
<path d="M146.079 47.5733H142.403V31.8188H146.079V47.5733Z" fill="white"/>
<path d="M160.988 34.7165H156.557V47.5733H152.902V34.7165H148.468V31.8188H156.57L156.557 34.7165L156.57 31.8188H160.99L160.988 34.7165Z" fill="white"/>
<path d="M171.736 41.5869V47.577H168.082V41.5869L162.368 31.8189H165.59C165.907 31.8189 166.157 31.8929 166.342 32.0408C166.532 32.1965 166.689 32.3897 166.802 32.6084L169.029 37.1893C169.216 37.5486 169.386 37.8857 169.538 38.2007C169.69 38.5156 169.823 38.8237 169.937 39.1249C170.045 38.8153 170.169 38.5037 170.31 38.1899C170.451 37.8761 170.615 37.5426 170.802 37.1893L173.008 32.6084C173.06 32.5099 173.12 32.4159 173.188 32.3273C173.261 32.2319 173.347 32.1465 173.442 32.0731C173.544 31.9951 173.657 31.9331 173.777 31.889C173.91 31.841 174.051 31.8173 174.193 31.8189H177.437L171.736 41.5869Z" fill="white"/>
<defs>
<linearGradient id="paint0_linear" x1="14.4628" y1="45.2693" x2="41.293" y2="8.89385" gradientUnits="userSpaceOnUse">
<stop stop-color="#52D9EF"/>
<stop offset="1" stop-color="#9FD9EF"/>
</linearGradient>
<linearGradient id="paint1_linear" x1="35.2284" y1="25.4396" x2="8.78521" y2="62.2022" gradientUnits="userSpaceOnUse">
<stop stop-color="#1B75BC"/>
<stop offset="1" stop-color="#1B46BC"/>
</linearGradient>
<linearGradient id="paint2_linear" x1="28.4847" y1="38.0613" x2="28.4847" y2="14.505" gradientUnits="userSpaceOnUse">
<stop stop-color="#27AAE1"/>
<stop offset="1" stop-color="#1B75BC"/>
</linearGradient>
</defs>
</svg>
