<svg width="28" height="28" viewBox="0 0 28 28" fill="none" xmlns="http://www.w3.org/2000/svg">
<path d="M13.7068 27.1196C21.1956 27.1196 27.2666 21.0487 27.2666 13.5598C27.2666 6.07093 21.1956 0 13.7068 0C6.2179 0 0.146973 6.07093 0.146973 13.5598C0.146973 21.0487 6.2179 27.1196 13.7068 27.1196Z" fill="white"/>
<path fill-rule="evenodd" clip-rule="evenodd" d="M13.1129 15.3054H17.8246C18.2139 15.3054 18.5366 15.6106 18.5366 16.0174V20.7291C18.5366 21.1185 18.2314 21.4411 17.8246 21.4411H13.1129C12.7235 21.4411 12.4009 21.136 12.4009 20.7291V15.9835C12.4009 15.6106 12.6896 15.3054 13.1129 15.3054Z" fill="#00C7F4"/>
<path fill-rule="evenodd" clip-rule="evenodd" d="M15.4348 12.22L18.2818 8.44011C18.5355 8.13497 18.9599 8.05075 19.265 8.30449L23.0449 11.1514C23.35 11.4052 23.4342 11.8295 23.1805 12.1347L20.3336 15.8806C20.0798 16.1858 19.6555 16.27 19.3503 16.0162L15.5705 13.1693C15.2653 12.9495 15.215 12.5251 15.4348 12.22Z" fill="#00C7F4"/>
<path fill-rule="evenodd" clip-rule="evenodd" d="M7.48579 14.3221L11.7064 16.4581C12.0619 16.6277 12.1975 17.0684 12.0116 17.39L9.87554 21.6106C9.70602 21.9661 9.26525 22.1017 8.9437 21.9157L4.72308 19.7797C4.36762 19.6102 4.232 19.1694 4.41793 18.8479L6.55395 14.6273C6.72347 14.2707 7.13033 14.1351 7.48579 14.3221Z" fill="#00C7F4"/>
</svg>
