<svg width="325" height="89" viewBox="0 0 325 89" fill="none" xmlns="http://www.w3.org/2000/svg">
<path d="M18.7939 38.727C20.6653 31.8065 22.3609 27.9461 27.2935 22.7438C32.3633 17.3968 36.1975 15.079 43.2939 13.0955C50.0639 11.2033 58.6751 11.8752 65.2935 14.2437C70.2939 16.0332 73.9927 18.5 77.5 23C80.6301 27.0161 82.6772 34.2268 82.6772 34.2268L83.6772 27.7268C83.6772 27.7268 86.1308 32.8421 86.5 37C86.8551 41 86.8516 43.454 86.1773 48.227C85.5031 53 83.5 58.5001 80 63.0001C76.2529 67.8177 71.5 71.4286 65 73.5953C60.5 75.0953 51.6773 75.434 46 73.5953C41.6773 72.1953 37.9789 70.4682 34.6773 66.727C31.555 63.189 29.4955 60.1124 28.5 55.4998C27.5113 50.919 27.3853 46.5516 28.5 41.9998C29.5386 37.759 31.0725 35.2392 34 31.9998C36.9421 28.7443 40.7376 26.5512 44 25.5953C47.7388 24.4998 54.6342 24.3476 58.2939 26.0953C60.5878 27.1908 63.8939 29.0953 66.2939 32.0953C68.6939 35.0953 69.2058 36.4998 70 38.9998C71.1871 42.7366 71.3577 47.0622 69.6772 51.227C67.9206 55.5804 65.6135 58.1914 61.1773 59.727C58.5 60.6538 54.5 60.4998 51.6773 59.727C49.481 59.1256 46.2094 56.7728 45 54.4998C43.5325 51.7417 43.265 48.5363 44 45.4998C44.906 41.7568 49.6772 38.2268 49.6772 38.2268C49.6772 38.2268 46.6593 39.208 45 40.5001C42.9912 42.0642 41.6773 44.5001 41.1772 46.727C40.9336 47.8118 40.5 52.1116 41.6773 55.227C42.8547 58.3424 45.8231 61.5953 49.5 63.0953C54 64.9311 61.0417 63.3408 62.5 62.7268C64 62.0953 67.0952 60.8509 69 59.0001C71.5 56.5708 73.5 53.5001 74.5 50.0001C75.5 46.5001 75.7939 41.227 74.7939 36.7438C74.0136 33.2452 72.5737 30.493 70.2939 27.7268C67.2222 23.9998 63.5 21.4998 57.5 19.4998C53.4472 18.1489 46 18.2497 43.2939 18.9998C40.5879 19.75 36.3389 21.4644 33 23.9998C28.4996 27.4173 24.826 33.3683 23 37.4998C19.6777 45.0167 19.1777 59.2267 19.1777 59.2267C19.1777 59.2267 16.806 46.0782 18.7939 38.727Z" fill="#EE4823"/>
<path d="M98.373 70.2373C98.2148 70.0791 98.1094 69.6572 98.0566 68.9717C98.0566 68.2861 98.1621 67.9434 98.373 67.9434C98.7949 67.9434 99.3486 67.8643 100.034 67.7061C100.72 67.5479 101.353 67.3369 101.933 67.0732C102.565 66.8096 102.908 66.5723 102.961 66.3613C103.225 65.3066 103.409 64.1992 103.515 63.0391C103.673 61.8789 103.752 60.6396 103.752 59.3213V41.1279C103.752 40.7588 103.62 40.5742 103.356 40.5742H99.1641C99.0059 40.5742 98.9268 40.416 98.9268 40.0996C98.9268 39.625 99.3223 38.9658 100.113 38.1221C100.957 37.2783 101.88 36.8564 102.882 36.8564H103.356C103.62 36.8564 103.752 36.6982 103.752 36.3818V35.3535C103.752 32.5586 104.2 29.9482 105.097 27.5225C105.993 25.0967 107.18 22.9346 108.656 21.0361C110.186 19.1377 111.873 17.6611 113.719 16.6064C115.617 15.5518 117.542 15.0244 119.493 15.0244C123.343 15.0244 125.848 16.0527 127.008 18.1094C127.008 21.4316 126.059 23.0928 124.16 23.0928C123.58 23.0928 123.053 22.8555 122.578 22.3809C122.104 21.8535 121.603 21.2734 121.075 20.6406C120.601 19.9551 120.021 19.375 119.335 18.9004C118.702 18.373 117.938 18.1094 117.041 18.1094C115.512 18.1094 114.193 18.7686 113.086 20.0869C111.979 21.4053 111.135 23.1455 110.555 25.3076C110.027 27.4697 109.764 29.8428 109.764 32.4268V36.4609C109.764 36.7246 109.896 36.8564 110.159 36.8564H118.939C119.203 36.8564 119.335 37.041 119.335 37.4102C119.335 38.2539 119.019 39.3086 118.386 40.5742H110.238C109.922 40.5742 109.764 40.7324 109.764 41.0488V59.3213C109.764 62.1689 110.001 64.5156 110.476 66.3613C110.581 66.5723 110.924 66.8096 111.504 67.0732C112.084 67.3369 112.717 67.5479 113.402 67.7061C114.088 67.8643 114.589 67.9434 114.905 67.9434C115.063 67.9434 115.169 68.2598 115.222 68.8926C115.274 69.5254 115.248 69.9736 115.143 70.2373L106.679 69.8418L98.373 70.2373ZM147.22 70.6328C146.798 70.6328 146.587 70.2109 146.587 69.3672V65.333C146.587 65.0693 146.534 64.9375 146.429 64.9375C142.948 68.6816 139.494 70.5537 136.067 70.5537C133.588 70.5537 131.61 69.8418 130.134 68.418C128.71 66.9414 127.682 65.0957 127.049 62.8809C126.469 60.6133 126.179 58.2666 126.179 55.8408V45.874C126.179 43.8701 125.81 42.4463 125.071 41.6025C124.544 40.9697 123.911 40.5479 123.173 40.3369C122.487 40.126 121.855 40.0205 121.275 40.0205C120.747 39.9678 120.484 39.8887 120.484 39.7832C120.484 38.5176 120.642 37.8584 120.958 37.8057C123.753 37.3838 125.994 37.0146 127.682 36.6982C129.422 36.3291 130.424 36.1182 130.688 36.0654L132.27 35.6699C132.481 35.6172 132.612 35.8281 132.665 36.3027C132.718 36.7773 132.718 37.1201 132.665 37.3311C132.349 39.8623 132.191 41.8135 132.191 43.1846V53.8633C132.191 57.9238 132.797 60.9297 134.01 62.8809C135.223 64.7793 137.2 65.7285 139.942 65.7285C140.997 65.7285 142.026 65.4385 143.027 64.8584C144.082 64.2783 144.926 63.5928 145.559 62.8018C146.244 61.958 146.587 61.2461 146.587 60.666V45.874C146.587 43.8701 146.218 42.4463 145.48 41.6025C144.952 40.9697 144.319 40.5479 143.581 40.3369C142.896 40.126 142.263 39.9941 141.683 39.9414C141.155 39.8887 140.892 39.8359 140.892 39.7832C140.892 38.5176 141.05 37.8584 141.366 37.8057C144.161 37.3838 146.244 37.041 147.615 36.7773C149.039 36.5137 150.173 36.2764 151.017 36.0654L152.678 35.6699C152.889 35.6172 153.021 35.8281 153.073 36.3027C153.126 36.7773 153.126 37.1201 153.073 37.3311C152.757 39.8623 152.599 41.7607 152.599 43.0264V58.8467C152.599 61.2197 152.783 63.2236 153.152 64.8584C153.311 65.3857 153.733 65.7285 154.418 65.8867C155.104 65.9922 155.895 66.0977 156.791 66.2031L157.819 66.2822C157.978 66.335 158.057 66.625 158.057 67.1523C158.057 67.3105 157.978 67.5742 157.819 67.9434C157.714 68.2598 157.582 68.418 157.424 68.418C155.842 68.5234 154.102 68.8135 152.203 69.2881C150.305 69.71 148.881 70.1055 147.932 70.4746L147.22 70.6328ZM160.075 70.2373C159.864 70.0264 159.759 69.5781 159.759 68.8926C159.759 68.2598 159.864 67.9434 160.075 67.9434C160.497 67.9434 161.077 67.8643 161.816 67.7061C162.554 67.5479 163.239 67.3369 163.872 67.0732C164.505 66.8096 164.848 66.5723 164.901 66.3613C165.112 65.623 165.243 64.7793 165.296 63.8301C165.402 62.8809 165.454 61.8789 165.454 60.8242V45.874C165.454 43.8701 165.085 42.4463 164.347 41.6025C163.82 40.9697 163.187 40.5479 162.448 40.3369C161.763 40.126 161.13 40.0205 160.55 40.0205C160.023 39.9678 159.759 39.8887 159.759 39.7832C159.759 38.5176 159.917 37.8584 160.234 37.8057C163.029 37.3838 165.296 37.0146 167.036 36.6982C168.777 36.3291 169.858 36.0918 170.28 35.9863L171.545 35.6699C171.756 35.6172 171.888 35.8281 171.941 36.3027C171.993 36.7773 171.993 37.1201 171.941 37.3311C171.835 38.0693 171.756 38.7021 171.703 39.2295C171.651 39.7568 171.624 40.1787 171.624 40.4951C171.624 40.7061 171.677 40.8115 171.782 40.8115C171.835 40.8115 171.914 40.7588 172.02 40.6533C173.233 39.3877 174.867 38.2012 176.924 37.0938C179.033 35.9336 181.037 35.3535 182.936 35.3535C186.627 35.3535 189.211 36.6719 190.688 39.3086C192.164 41.9453 192.903 46.2168 192.903 52.123V59.3213C192.903 60.8506 192.955 62.1953 193.061 63.3555C193.166 64.5156 193.324 65.5176 193.535 66.3613C193.641 66.5723 194.01 66.8096 194.643 67.0732C195.276 67.3369 195.961 67.5479 196.699 67.7061C197.438 67.8643 197.965 67.9434 198.281 67.9434C198.44 67.9434 198.545 68.2598 198.598 68.8926C198.651 69.5254 198.624 69.9736 198.519 70.2373L190.055 69.8418L181.749 70.2373C181.538 70.0264 181.433 69.5781 181.433 68.8926C181.433 68.2598 181.538 67.9434 181.749 67.9434C182.171 67.9434 182.725 67.8643 183.41 67.7061C184.096 67.5479 184.729 67.3369 185.309 67.0732C185.889 66.8096 186.205 66.5723 186.258 66.3613C186.469 65.623 186.601 64.7793 186.654 63.8301C186.759 62.8809 186.812 61.8789 186.812 60.8242V52.9141C186.812 48.0098 186.179 44.6611 184.913 42.8682C183.648 41.0752 181.591 40.1787 178.743 40.1787C177.636 40.1787 176.529 40.4951 175.421 41.1279C174.314 41.708 173.391 42.3936 172.653 43.1846C171.914 43.9756 171.545 44.7139 171.545 45.3994V59.3213C171.545 60.8506 171.598 62.1953 171.703 63.3555C171.809 64.5156 171.967 65.5176 172.178 66.3613C172.283 66.5723 172.653 66.8096 173.285 67.0732C173.918 67.3369 174.604 67.5479 175.342 67.7061C176.08 67.8643 176.608 67.9434 176.924 67.9434C177.082 67.9434 177.188 68.2598 177.24 68.8926C177.293 69.5254 177.267 69.9736 177.161 70.2373L168.697 69.8418L160.075 70.2373Z" fill="#EE4823"/>
<path d="M214.38 70.5537C211.744 70.5537 209.529 69.6836 207.736 67.9434C205.995 66.2031 205.125 63.7246 205.125 60.5078V40.416H200.537C200.274 40.416 200.142 39.8623 200.142 38.7549C200.142 38.4385 200.168 38.2539 200.221 38.2012C201.803 37.4629 203.464 36.0654 205.204 34.0088C206.417 32.585 207.314 31.3457 207.894 30.291C208.527 29.2363 208.843 28.6035 208.843 28.3926C210.425 28.3926 211.216 28.5244 211.216 28.7881V36.6191L217.465 36.6982H221.895C222.317 36.6982 222.528 36.9355 222.528 37.4102C222.528 38.4121 222.264 39.4141 221.737 40.416H211.216V59.7959C211.216 61.9053 211.744 63.5928 212.798 64.8584C213.906 66.124 215.329 66.7568 217.07 66.7568C218.704 66.7568 220.339 66.2559 221.974 65.2539C222.132 65.1484 222.369 65.3857 222.686 65.9658C223.002 66.4932 223.134 66.7832 223.081 66.8359C222.29 67.6797 221.077 68.5234 219.443 69.3672C217.808 70.1582 216.12 70.5537 214.38 70.5537ZM233.485 70.5537C231.059 70.5537 229.055 69.9209 227.473 68.6553C225.891 67.3369 225.1 65.3857 225.1 62.8018C225.1 59.6377 227.157 57.001 231.27 54.8916C233.063 53.9951 234.83 53.2832 236.57 52.7559C238.363 52.2285 240.156 51.6221 241.949 50.9365C242.423 50.7783 242.661 50.3828 242.661 49.75V43.8174C242.661 42.1299 242.133 40.8379 241.079 39.9414C240.024 38.9922 238.758 38.5176 237.282 38.5176C235.7 38.5176 234.381 39.0713 233.327 40.1787C232.272 41.2334 231.745 42.6309 231.745 44.3711C231.745 46.2168 230.664 47.1396 228.501 47.1396C226.972 47.1396 225.944 46.6387 225.416 45.6367C225.416 44.5293 225.865 43.3955 226.761 42.2354C227.71 41.0225 228.923 39.915 230.4 38.9131C231.876 37.9111 233.485 37.0938 235.225 36.4609C237.018 35.8281 238.785 35.5117 240.525 35.5117C243.425 35.5117 245.508 36.2236 246.774 37.6475C248.04 39.0186 248.672 41.2598 248.672 44.3711V62.6436C248.672 63.751 248.962 64.6738 249.542 65.4121C250.123 66.1504 250.914 66.5195 251.916 66.5195C252.601 66.5195 253.524 66.1504 254.684 65.4121C254.895 65.4121 255 65.623 255 66.0449C255 66.7305 254.869 67.2842 254.605 67.7061C252.443 69.5518 250.597 70.4746 249.068 70.4746C247.855 70.4746 246.695 69.9736 245.587 68.9717C244.48 67.9697 243.715 66.915 243.293 65.8076C243.03 66.0186 242.687 66.3086 242.265 66.6777C241.896 66.9941 241.58 67.2578 241.316 67.4688C240.208 68.3125 238.996 69.0508 237.677 69.6836C236.412 70.2637 235.014 70.5537 233.485 70.5537ZM236.491 66.0449C237.967 66.0449 239.365 65.623 240.683 64.7793C242.001 63.9355 242.661 63.0391 242.661 62.0898V53.9424C241.29 54.4697 239.971 54.9443 238.706 55.3662C237.493 55.7881 236.517 56.1309 235.779 56.3945C234.83 56.7637 233.907 57.4229 233.01 58.3721C232.166 59.3213 231.745 60.4023 231.745 61.6152C231.745 63.1973 232.219 64.3311 233.168 65.0166C234.17 65.7021 235.278 66.0449 236.491 66.0449ZM255.516 87.877C255.305 87.666 255.2 87.2441 255.2 86.6113C255.2 85.9258 255.305 85.583 255.516 85.583C255.938 85.583 256.518 85.5039 257.256 85.3457C257.995 85.1875 258.68 84.9766 259.313 84.7129C259.946 84.4492 260.289 84.2119 260.341 84.001C260.552 83.2627 260.684 82.4189 260.737 81.4697C260.842 80.5205 260.895 79.5186 260.895 78.4639V45.7949C260.895 43.791 260.526 42.3672 259.788 41.5234C259.26 40.8906 258.628 40.4688 257.889 40.2578C257.204 40.0469 256.571 39.9414 255.991 39.9414C255.463 39.8887 255.2 39.8096 255.2 39.7041C255.2 38.4385 255.358 37.7793 255.674 37.7266C261.264 36.8828 264.85 36.2236 266.432 35.749L266.986 35.5908C267.25 35.5908 267.355 35.8809 267.302 36.4609C267.25 36.9883 267.197 37.4365 267.144 37.8057L267.065 38.2803C267.592 37.9111 268.331 37.5156 269.28 37.0938C270.229 36.6719 271.231 36.3027 272.286 35.9863C273.393 35.6699 274.342 35.5117 275.133 35.5117C278.719 35.5117 281.699 36.3291 284.072 37.9639C286.498 39.5459 288.291 41.5762 289.451 44.0547C290.664 46.4805 291.27 48.959 291.27 51.4902C291.27 54.0215 290.796 56.4473 289.846 58.7676C288.897 61.0352 287.605 63.0654 285.97 64.8584C284.336 66.6514 282.463 68.0752 280.354 69.1299C278.297 70.1318 276.162 70.6328 273.947 70.6328C272.312 70.6328 271.073 70.501 270.229 70.2373C269.385 70.0264 268.41 69.6572 267.302 69.1299C267.091 69.3408 266.986 69.6836 266.986 70.1582V76.9609C266.986 78.4902 267.039 79.835 267.144 80.9951C267.25 82.1553 267.408 83.1572 267.619 84.001C267.724 84.2119 268.093 84.4492 268.726 84.7129C269.359 84.9766 270.045 85.1875 270.783 85.3457C271.521 85.5039 272.048 85.583 272.365 85.583C272.523 85.583 272.629 85.8994 272.681 86.5322C272.734 87.2178 272.708 87.666 272.602 87.877L264.138 87.4814L255.516 87.877ZM274.263 67.3105C276.373 67.3105 278.166 66.6777 279.642 65.4121C281.171 64.0938 282.358 62.4062 283.202 60.3496C284.046 58.2402 284.467 56.0254 284.467 53.7051C284.467 50.752 283.914 48.2207 282.806 46.1113C281.752 43.9492 280.328 42.2881 278.535 41.1279C276.742 39.9678 274.764 39.3877 272.602 39.3877C270.967 39.3877 269.623 39.8359 268.568 40.7324C267.513 41.5762 266.986 42.8154 266.986 44.4502V62.248C266.986 63.6719 267.751 64.8848 269.28 65.8867C270.809 66.8359 272.47 67.3105 274.263 67.3105Z" fill="#424244"/>
</svg>
