<?xml version="1.0" encoding="UTF-8"?>
<svg xmlns="http://www.w3.org/2000/svg" xmlns:xlink="http://www.w3.org/1999/xlink" width="150px" height="36px" viewBox="0 0 138 36" version="1.1">
<g id="surface1">
<path style=" stroke:none;fill-rule:nonzero;fill:rgb(100%,100%,100%);fill-opacity:1;" d="M 72.074219 35.433594 C 65.671875 35.433594 65.277344 31.65625 66.457031 27.363281 L 71.628906 27.363281 C 71.125 29.730469 70.804688 31.722656 73.644531 31.722656 C 75.390625 31.722656 76.488281 30.589844 76.84375 28.90625 C 77.789062 24.445312 67.441406 24.167969 69.007812 16.785156 C 69.832031 12.90625 72.335938 9.816406 78.632812 9.816406 C 83.664062 9.816406 85.679688 12.082031 84.238281 17.269531 L 79.207031 17.269531 C 79.601562 15.414062 79.695312 13.523438 77.605469 13.523438 C 75.929688 13.523438 74.742188 14.453125 74.375 16.167969 C 73.378906 20.871094 83.871094 20.460938 82.21875 28.253906 C 80.855469 34.675781 76.007812 35.433594 72.074219 35.433594 Z M 102.289062 35.019531 L 107.542969 10.226562 L 121.027344 10.226562 L 120.222656 14.039062 L 111.902344 14.039062 L 110.609375 20.152344 L 118.273438 20.152344 L 117.464844 23.964844 L 109.800781 23.964844 L 108.265625 31.210938 L 116.855469 31.210938 L 116.046875 35.019531 Z M 97.261719 20.152344 L 99.363281 10.226562 L 104.53125 10.226562 L 99.277344 35.023438 L 94.109375 35.023438 L 96.453125 23.964844 L 90.53125 23.964844 L 88.1875 35.023438 L 83.019531 35.023438 L 88.273438 10.226562 L 93.441406 10.226562 L 91.339844 20.152344 Z M 58.707031 17.269531 L 50.042969 35.023438 L 44.835938 35.023438 L 56.933594 10.226562 L 63.746094 10.226562 L 65.199219 35.023438 L 59.753906 35.023438 Z M 131.699219 10.226562 C 138.476562 10.226562 138.78125 14.757812 137.144531 22.484375 C 136.335938 26.300781 135.070312 35.019531 126.238281 35.019531 L 117.820312 35.019531 C 119.570312 26.753906 121.324219 18.488281 123.074219 10.226562 Z M 131.878906 22.625 C 132.84375 18.054688 133.699219 14.039062 130.105469 14.039062 L 127.433594 14.039062 C 126.222656 19.761719 125.007812 25.484375 123.796875 31.210938 L 126.292969 31.210938 C 129.441406 31.210938 130.5625 28.839844 131.878906 22.625 Z M 43.601562 35.023438 L 38.4375 35.023438 L 40.78125 23.964844 L 34.859375 23.964844 L 32.515625 35.023438 L 27.34375 35.023438 L 32.601562 10.226562 L 37.769531 10.226562 L 35.664062 20.152344 L 41.585938 20.152344 L 43.691406 10.226562 L 48.859375 10.226562 Z M 17.0625 20.152344 L 18.355469 14.039062 L 12.4375 14.039062 L 11.140625 20.152344 Z M 28.691406 14.039062 L 23.527344 14.039062 L 22.230469 20.152344 L 27.398438 20.152344 L 26.589844 23.964844 L 21.421875 23.964844 L 19.078125 35.023438 L 13.910156 35.023438 L 16.253906 23.964844 L 10.332031 23.964844 L 7.988281 35.023438 L 2.820312 35.023438 L 5.164062 23.964844 L 0 23.964844 L 0.808594 20.152344 L 5.972656 20.152344 L 7.269531 14.039062 L 2.101562 14.039062 L 2.910156 10.226562 L 8.078125 10.226562 L 10.179688 0.308594 L 15.347656 0.308594 L 13.246094 10.226562 L 19.167969 10.226562 L 21.269531 0.308594 L 26.4375 0.308594 L 24.335938 10.226562 L 29.5 10.226562 Z M 28.691406 14.039062 "/>
</g>
</svg>
