<svg width="24" height="24" viewBox="0 0 24 24" fill="none" xmlns="http://www.w3.org/2000/svg">
<path d="M12 0C7.34042 0 3.54968 3.85031 3.54968 8.58277V15.4175C3.54968 20.1499 7.34042 24 12 24C16.6594 24 20.4504 20.1616 20.4504 15.4437V8.58277C20.4504 3.85031 16.6594 0 12 0ZM18.8609 15.4437C18.8609 19.2853 15.7833 22.4106 12 22.4106C8.21698 22.4106 5.13912 19.2734 5.13912 15.4172V8.58277C5.13912 4.72659 8.21698 1.58939 12 1.58939C15.7834 1.58939 18.8609 4.72659 18.8609 8.58277V15.4437Z" fill="white"/>
<path d="M12 6.56958C11.5611 6.56958 11.2053 6.92536 11.2053 7.3643V10.1458C11.2053 10.5847 11.5611 10.9405 12 10.9405C12.439 10.9405 12.7947 10.5847 12.7947 10.1458V7.3643C12.7947 6.92536 12.439 6.56958 12 6.56958Z" fill="white"/>
</svg>
