<svg xmlns="http://www.w3.org/2000/svg" width="200" height="38" viewBox="0 0 171 33">
    <path d="M34.481 22.6741V9.92334H39.3215C40.6124 9.92334 41.7418 10.2461 42.7099 11.0532C43.6781 11.8602 44.0008 12.8286 44.0008 13.9584C44.0008 15.2496 43.5167 16.218 42.7099 16.8636C41.9032 17.5092 40.6124 18.1548 39.1602 18.1548H36.9012V22.6741H34.481ZM37.0626 15.8952H39.1602C39.8056 15.8952 40.2897 15.7338 40.6124 15.411C40.9351 15.0882 41.0964 14.604 41.0964 14.1198C41.0964 13.6356 40.9351 13.1514 40.6124 12.8286C40.2897 12.3444 39.8056 12.183 39.1602 12.183H36.9012V15.8952H37.0626Z" fill="#ffffff"/>
    <path d="M49.0029 16.3792C49.0029 14.6038 49.6483 12.9897 50.9392 11.6985C52.23 10.4073 53.8435 9.76172 55.7797 9.76172C57.5546 9.76172 59.1681 10.4073 60.6203 11.6985C61.9111 12.9897 62.7179 14.6038 62.5566 16.3792C62.5566 18.1546 61.9111 19.7686 60.6203 21.0598C59.3295 22.351 57.716 22.9966 55.7797 22.9966C54.0049 22.9966 52.3913 22.351 50.9392 21.0598C49.487 19.7686 49.0029 18.1546 49.0029 16.3792ZM59.9749 16.3792C59.9749 15.088 59.6522 14.1196 58.8454 13.3126C58.0387 12.5055 57.0706 12.1827 55.7797 12.1827C54.6503 12.1827 53.6822 12.5055 52.8754 13.3126C52.0686 14.1196 51.7459 15.088 51.7459 16.3792C51.7459 17.6704 52.0686 18.6388 52.8754 19.4458C53.6822 20.2528 54.6503 20.5756 55.7797 20.5756C56.9092 20.5756 57.8773 20.2528 58.6841 19.4458C59.4909 18.4774 59.9749 17.509 59.9749 16.3792Z" fill="#ffffff"/>
    <path d="M68.687 22.6741V9.92334H71.2687V20.4144H76.916V22.8355H68.687V22.6741Z" fill="#ffffff"/>
    <path d="M91.1145 9.92334L86.758 17.6706V22.6741H84.1764V17.6706L79.8198 9.92334H82.7242L85.6285 14.9268L88.3715 9.92334H91.1145V9.92334Z" fill="#ffffff"/>
    <g opacity="0.6">
        <path d="M100.473 22.6741V10.8917H95.7939V9.92334H106.121V10.8917H101.441V22.8355H100.473V22.6741Z" fill="#ffffff"/>
        <path d="M122.095 22.6741H120.965L116.609 17.025H113.382V22.8355H112.414V9.92334H116.77C117.9 9.92334 118.868 10.2461 119.513 10.8917C120.159 11.5374 120.643 12.3444 120.643 13.4742C120.643 14.4426 120.32 15.0882 119.836 15.7338C119.352 16.3794 118.545 16.7022 117.738 16.8636L122.095 22.6741ZM113.382 10.8917V16.0566H116.609C117.577 16.0566 118.222 15.8952 118.706 15.411C119.19 14.9268 119.513 14.2812 119.513 13.4742C119.513 12.6672 119.19 12.0216 118.706 11.5374C118.222 11.0532 117.577 10.8917 116.609 10.8917H113.382V10.8917Z" fill="#ffffff"/>
        <path d="M137.262 22.6738L135.971 19.6072H129.194L127.904 22.6738H126.936L132.422 9.76172H132.906L138.392 22.6738H137.262ZM132.744 11.5371L129.84 18.8002H135.81L132.744 11.5371Z" fill="#ffffff"/>
        <path d="M144.845 22.6741V9.92334H148.395C150.493 9.92334 152.267 10.5689 153.558 11.6988C154.849 12.8286 155.494 14.4426 155.494 16.218C155.494 18.1548 154.849 19.6074 153.558 20.8986C152.267 22.1899 150.654 22.6741 148.395 22.6741H144.845ZM145.975 21.8671H148.556C150.331 21.8671 151.783 21.3828 152.913 20.253C154.042 19.2846 154.526 17.832 154.526 16.3794C154.526 14.7654 154.042 13.4742 152.913 12.5058C151.783 11.5374 150.493 11.0532 148.556 11.0532H145.975V21.8671Z" fill="#ffffff"/>
        <path d="M162.27 22.6741V9.92334H170.338V10.8917H163.399V15.411H168.885V16.3794H163.399V21.867H170.66V22.8355H162.27V22.6741Z" fill="#ffffff"/>
    </g>
    <path d="M14.7741 12.3336L26.7237 19.2882C27.3755 19.7228 28.2446 19.2882 28.2446 18.4188V8.63893C28.2446 8.20426 28.0273 7.98693 27.5928 7.7696L14.5568 0.162999C14.3395 -0.0543329 13.905 -0.0543329 13.6878 0.162999L0.651798 7.7696C0.217266 7.7696 0 8.20426 0 8.63893V12.1162L13.6878 4.2923C14.1223 4.07497 14.3395 4.07497 14.7741 4.2923L24.3338 9.72559C24.7683 9.94292 24.9856 10.3776 24.9856 10.5949V14.0722L14.7741 8.20426C14.3395 7.98693 14.1223 7.98693 13.6878 8.20426L0.651798 15.8109C0.217266 16.0282 0 16.4629 0 16.6802V23.6348C0 24.0695 0.217266 24.2868 0.434532 24.5041L3.47625 26.2428V18.8535C3.47625 18.4188 3.69352 18.2015 4.12805 17.9842L13.6878 12.5509C13.905 12.1162 14.3395 12.1162 14.7741 12.3336Z" fill="#ffffff"/>
    <path d="M14.7752 27.9815C14.3407 28.1989 14.1234 28.1989 13.6889 27.9815L7.1709 24.2869V27.7642C7.1709 28.1989 7.38816 28.4162 7.60543 28.6335L13.6889 32.1108C14.1234 32.3282 14.3407 32.3282 14.7752 32.1108L28.463 24.2869L25.4212 22.5483C24.9867 22.3309 24.7694 22.3309 24.3349 22.5483L14.7752 27.9815Z" fill="#ffffff"/>
    <path d="M14.773 24.0694L20.4219 20.8094C20.8565 20.5921 20.8565 20.1574 20.4219 19.9401L14.773 16.4628C14.3385 16.2455 14.1212 16.2455 13.6867 16.4628L7.82053 19.7228C7.386 19.9401 7.386 20.3748 7.82053 20.5921L13.4694 23.8521C13.904 24.2867 14.3385 24.2867 14.773 24.0694Z" fill="#ffffff"/>
</svg>