<svg width="58" height="80" viewBox="0 0 58 80" fill="none" xmlns="http://www.w3.org/2000/svg">
<path d="M26.6021 29.5456L31.44 37.0268L33.2211 17.1033L26.3572 24.9909L26.6021 29.5456Z" fill="#D01F36"/>
<path d="M37.4091 13.1474L32.6902 38.9622L33.6997 40.5225C33.888 40.8127 34.1032 41.0874 34.3594 41.3196C34.746 41.6679 35.1835 41.9256 35.645 42.0955L48.7216 0.232178L37.4091 13.1474Z" fill="#D01F36"/>
<path d="M31.8474 43.2139L31.9819 43.1063L31.8899 42.9958L31.8474 43.2139Z" fill="#D01F36"/>
<path d="M8.18787 16.8979L31.0436 44.7968L30.4221 45.2924L8.55316 22.6292L10.2422 32.9138L26.3813 48.2685L25.856 48.7102L10.5382 37.763L11.5675 46.2113L19.213 50.2025C20.6939 50.7858 20.7576 52.8586 19.3163 53.5325L8.21194 60.0269L18.8024 60.4488L32.9663 53.2111L42.0687 48.5587L42.0927 48.5474C42.9338 48.1793 44.5591 47.443 45.958 46.6587C47.9515 45.5373 49.2356 47.5322 49.2356 47.5322C50.1686 45.4524 47.2365 43.5821 44.3397 42.3545C44.3 42.3375 44.2632 42.322 44.225 42.3078C45.3307 43.1757 46.3601 44.1342 46.7919 44.9582C46.6885 44.8945 43.3769 42.8444 39.4437 42.2823C38.0152 44.4882 34.6809 44.6836 32.955 42.5131L5.46948 0L8.18787 16.8979Z" fill="#D01F36"/>
<path d="M3.68116 76.1774H2.41824V79.9987H0V69.0798H4.1498C5.01345 69.0798 5.74402 69.2469 6.3415 69.5796C6.93898 69.9123 7.38355 70.3512 7.67521 70.8978C7.96687 71.4443 8.11129 72.0347 8.11129 72.6675C8.11129 73.3755 7.93431 74.0112 7.58035 74.5789C7.22639 75.1452 6.70678 75.57 6.02011 75.8503L8.36047 80.0001H5.81906L3.68116 76.1774ZM2.41824 74.1966H3.76044C4.32253 74.1966 4.79541 74.0791 5.18052 73.8455C5.56562 73.6119 5.75818 73.2197 5.75818 72.6675C5.75818 72.1366 5.56846 71.76 5.18901 71.5363C4.80957 71.3126 4.33385 71.2007 3.76186 71.2007H2.41965V74.1966H2.41824Z" fill="#D01F36"/>
<path d="M12.121 71.2007V73.5255H16.2708V75.4128H12.121V77.8778H17.0509V79.9987H9.67163V69.0798H17.0495V71.2007H12.121Z" fill="#D01F36"/>
<path d="M18.5007 69.0642H22.8062C23.7732 69.0642 24.6256 69.2808 25.3646 69.7112C26.1023 70.1431 26.6771 70.7675 27.0877 71.583C27.4983 72.3999 27.7036 73.374 27.7036 74.5081C27.7036 75.662 27.4954 76.6502 27.0792 77.4714C26.6629 78.2926 26.0839 78.917 25.3391 79.3431C24.5958 79.7693 23.7407 79.9831 22.7737 79.9831H18.4993V69.0642H18.5007ZM22.322 77.7999C23.1743 77.7999 23.8511 77.5564 24.3495 77.0665C24.8493 76.578 25.0984 75.7257 25.0984 74.5081C25.0984 73.2919 24.8507 72.4381 24.358 71.9497C23.8638 71.4612 23.1857 71.2163 22.322 71.2163H20.8552V77.7999H22.322Z" fill="#D01F36"/>
<path d="M31.1978 69.0798H32.2738V74.0565H32.3517L36.8441 69.0798H38.2174L33.8029 73.8059L38.6238 79.9987H37.3439L33.1473 74.6016L32.2738 75.5374V79.9987H31.1978V69.0798Z" fill="white"/>
<path d="M39.9023 69.0798H40.994V79.9987H39.9023V69.0798Z" fill="white"/>
<path d="M49.7608 70.0624H46.4535V79.9987H45.3774V70.0624H42.0701V69.0798H49.7608V70.0624Z" fill="white"/>
<path d="M51.7726 70.0624V73.9616H56.6402V74.8663H51.7726V79.0161H57.2631V79.9987H50.6965V69.0798H57.2631V70.0624H51.7726Z" fill="white"/>
</svg>
