<svg width="41" height="37" viewBox="0 0 41 37" fill="none" xmlns="http://www.w3.org/2000/svg">
<path d="M25.3489 19.1982C25.0721 19.1982 24.7953 19.1038 24.5681 18.9086C24.0657 18.4766 24.0065 17.7198 24.4385 17.2158L26.1681 15.1982L24.4369 13.179C24.0049 12.6766 24.0641 11.9182 24.5665 11.4862C25.0705 11.0542 25.8273 11.1134 26.2593 11.6158L28.6593 14.4158C29.0449 14.8654 29.0449 15.5278 28.6593 15.979L26.2593 18.779C26.0225 19.0558 25.6865 19.1982 25.3489 19.1982Z" fill="#9F9F9F"/>
<path d="M14.9486 19.1982C14.611 19.1982 14.275 19.0558 14.0366 18.779L11.6366 15.979C11.251 15.5294 11.251 14.867 11.6366 14.4158L14.0366 11.6158C14.467 11.1118 15.2254 11.0542 15.7294 11.4878C16.2318 11.9198 16.291 12.6766 15.859 13.1806L14.1294 15.1982L15.8606 17.2174C16.2926 17.7198 16.2334 18.4782 15.731 18.9102C15.5038 19.1022 15.2254 19.1982 14.9486 19.1982Z" fill="#9F9F9F"/>
<path d="M18.68 21.5677C18.0336 21.4189 17.632 20.7741 17.7792 20.1293L20.1792 9.72927C20.328 9.08287 20.9712 8.68767 21.6176 8.82847C22.264 8.97727 22.6656 9.62207 22.5184 10.2669L20.1184 20.6669C19.9728 21.3021 19.3408 21.7165 18.68 21.5677Z" fill="#9F9F9F"/>
<path d="M36.5107 0H3.78337C1.77422 0 0.146973 1.62733 0.146973 3.63639V25.4546C0.146973 27.4637 1.77422 29.091 3.78337 29.091H16.5106V32.7274H12.8742V36.3637H27.4197V32.7273H23.7833V29.0909H36.5106C38.5196 29.0909 40.147 27.4637 40.147 25.4545V3.63639C40.147 1.62733 38.5197 0 36.5107 0ZM36.5107 25.4546H3.78337V3.63639H36.5107V25.4546Z" fill="#9F9F9F"/>
</svg>
