<?xml version="1.0" encoding="UTF-8"?>
<svg xmlns="http://www.w3.org/2000/svg" xmlns:xlink="http://www.w3.org/1999/xlink" width="150px" height="15px" viewBox="0 0 153 15" version="1.1">
<g id="surface1">
<path style=" stroke:none;fill-rule:nonzero;fill:rgb(100%,100%,100%);fill-opacity:1;" d="M 123.921875 6.566406 L 122.695312 6.566406 L 123.046875 2.269531 L 120.429688 6.566406 L 119.273438 6.566406 L 123.222656 0.105469 L 124.46875 0.105469 L 124.0625 4.453125 L 126.714844 0.105469 L 127.871094 0.105469 Z M 123.921875 6.566406 "/>
<path style=" stroke:none;fill-rule:nonzero;fill:rgb(100%,100%,100%);fill-opacity:1;" d="M 133.488281 1.179688 L 130.519531 1.179688 L 129.519531 2.804688 L 132.292969 2.804688 L 131.625 3.878906 L 128.855469 3.878906 L 127.222656 6.566406 L 126.0625 6.566406 L 130.011719 0.105469 L 134.136719 0.105469 Z M 133.488281 1.179688 "/>
<path style=" stroke:none;fill-rule:nonzero;fill:rgb(100%,100%,100%);fill-opacity:1;" d="M 139.714844 1.179688 L 137.925781 1.179688 L 134.628906 6.566406 L 133.46875 6.566406 L 136.769531 1.179688 L 134.976562 1.179688 L 135.644531 0.105469 L 140.382812 0.105469 Z M 139.714844 1.179688 "/>
<path style=" stroke:none;fill-rule:nonzero;fill:rgb(100%,100%,100%);fill-opacity:1;" d="M 119.203125 14.949219 L 118.042969 14.949219 L 119.675781 12.28125 L 117.273438 12.28125 L 115.640625 14.949219 L 114.480469 14.949219 L 118.449219 8.488281 L 119.605469 8.488281 L 117.941406 11.207031 L 120.34375 11.207031 L 122.011719 8.488281 L 123.167969 8.488281 Z M 119.203125 14.949219 "/>
<path style=" stroke:none;fill-rule:nonzero;fill:rgb(100%,100%,100%);fill-opacity:1;" d="M 124.941406 14.949219 L 120.800781 14.949219 L 124.746094 8.488281 L 128.890625 8.488281 L 128.222656 9.5625 L 125.238281 9.5625 L 124.238281 11.1875 L 127.011719 11.1875 L 126.34375 12.261719 L 123.574219 12.261719 L 122.605469 13.855469 L 125.589844 13.855469 Z M 124.941406 14.949219 "/>
<path style=" stroke:none;fill-rule:nonzero;fill:rgb(100%,100%,100%);fill-opacity:1;" d="M 133.609375 10.929688 C 133.453125 11.171875 133.257812 11.398438 133.011719 11.585938 C 132.925781 11.65625 132.765625 11.761719 132.554688 11.882812 C 132.347656 12.003906 132.1875 12.105469 132.066406 12.160156 C 131.925781 12.230469 131.800781 12.28125 131.679688 12.316406 L 131.378906 14.949219 L 130.117188 14.949219 L 130.449219 12.402344 L 129.1875 12.402344 L 127.625 14.949219 L 126.46875 14.949219 L 130.433594 8.488281 L 133.519531 8.488281 C 133.820312 8.488281 134.03125 8.574219 134.152344 8.730469 C 134.1875 8.78125 134.242188 8.867188 134.292969 9.007812 C 134.347656 9.144531 134.382812 9.25 134.382812 9.320312 C 134.398438 9.507812 134.328125 9.734375 134.171875 9.976562 Z M 132.453125 10.914062 L 133.011719 9.976562 C 133.03125 9.941406 133.046875 9.90625 133.046875 9.90625 C 133.046875 9.699219 133.011719 9.578125 132.90625 9.5625 L 130.90625 9.5625 L 129.855469 11.3125 L 131.785156 11.3125 C 131.835938 11.3125 131.925781 11.277344 132.066406 11.1875 C 132.207031 11.101562 132.3125 11.035156 132.417969 10.945312 C 132.433594 10.945312 132.453125 10.929688 132.453125 10.914062 Z M 132.453125 10.914062 "/>
<path style=" stroke:none;fill-rule:nonzero;fill:rgb(100%,100%,100%);fill-opacity:1;" d="M 138.804688 13.40625 C 138.664062 13.648438 138.46875 13.855469 138.261719 14.03125 C 138.101562 14.152344 137.890625 14.289062 137.609375 14.464844 C 137.328125 14.636719 137.121094 14.757812 136.980469 14.808594 C 136.679688 14.929688 136.417969 15 136.171875 15 L 134.503906 15 C 134.257812 15 134.066406 14.929688 133.941406 14.808594 C 133.871094 14.757812 133.800781 14.636719 133.734375 14.464844 C 133.660156 14.289062 133.628906 14.152344 133.609375 14.03125 C 133.59375 13.855469 133.660156 13.648438 133.800781 13.40625 L 135.875 10.027344 C 136.011719 9.785156 136.207031 9.578125 136.433594 9.40625 C 136.574219 9.300781 136.785156 9.164062 137.085938 8.972656 C 137.363281 8.800781 137.59375 8.679688 137.714844 8.625 C 138.015625 8.503906 138.277344 8.433594 138.523438 8.433594 L 140.191406 8.433594 C 140.433594 8.433594 140.628906 8.503906 140.753906 8.625 C 140.820312 8.679688 140.890625 8.800781 140.945312 8.972656 C 141.015625 9.144531 141.050781 9.285156 141.066406 9.40625 C 141.085938 9.578125 141.015625 9.785156 140.875 10.027344 Z M 136.996094 10.0625 L 134.960938 13.40625 C 134.941406 13.421875 134.941406 13.441406 134.941406 13.441406 C 134.960938 13.648438 135.03125 13.804688 135.136719 13.910156 C 135.152344 13.910156 135.171875 13.925781 135.1875 13.925781 L 136.769531 13.925781 C 136.785156 13.925781 136.804688 13.925781 136.839844 13.910156 C 137.066406 13.820312 137.328125 13.667969 137.609375 13.441406 L 137.644531 13.40625 L 139.679688 10.0625 C 139.699219 10.027344 139.699219 10.011719 139.699219 10.011719 C 139.679688 9.785156 139.609375 9.628906 139.507812 9.542969 C 139.488281 9.542969 139.472656 9.527344 139.453125 9.527344 L 137.875 9.527344 C 137.839844 9.527344 137.820312 9.527344 137.804688 9.542969 C 137.574219 9.628906 137.3125 9.804688 137.03125 10.011719 Z M 136.996094 10.0625 "/>
<path style=" stroke:none;fill-rule:nonzero;fill:rgb(100%,100%,100%);fill-opacity:1;" d="M 143.472656 14.949219 L 139.332031 14.949219 L 143.277344 8.488281 L 147.417969 8.488281 L 146.753906 9.5625 L 143.769531 9.5625 L 142.769531 11.1875 L 145.542969 11.1875 L 144.875 12.261719 L 142.101562 12.261719 L 141.136719 13.855469 L 144.121094 13.855469 Z M 143.472656 14.949219 "/>
<path style=" stroke:none;fill-rule:nonzero;fill:rgb(100%,100%,100%);fill-opacity:1;" d="M 150.824219 13.40625 C 150.667969 13.667969 150.492188 13.855469 150.28125 14.03125 C 150.140625 14.132812 149.929688 14.273438 149.648438 14.464844 C 149.367188 14.636719 149.15625 14.757812 149 14.808594 C 148.683594 14.929688 148.421875 15 148.191406 15 L 146.28125 15 C 145.804688 15 145.523438 14.707031 145.4375 14.097656 C 145.417969 14.046875 145.4375 13.925781 145.4375 13.769531 L 146.753906 13.40625 C 146.769531 13.613281 146.839844 13.769531 146.929688 13.910156 C 146.945312 13.910156 146.964844 13.925781 147 13.925781 L 148.804688 13.925781 L 148.875 13.910156 C 148.980469 13.875 149.140625 13.789062 149.332031 13.667969 C 149.527344 13.546875 149.648438 13.457031 149.667969 13.421875 L 150.050781 12.78125 C 150.121094 12.679688 150.105469 12.609375 150.035156 12.59375 L 147.664062 11.796875 C 147.4375 11.726562 147.3125 11.570312 147.296875 11.34375 C 147.28125 11.121094 147.347656 10.878906 147.523438 10.617188 L 147.875 10.027344 C 148.035156 9.769531 148.207031 9.578125 148.421875 9.40625 C 148.558594 9.300781 148.769531 9.164062 149.050781 8.988281 C 149.332031 8.816406 149.558594 8.695312 149.699219 8.625 C 150.015625 8.503906 150.28125 8.433594 150.507812 8.433594 L 152.140625 8.433594 C 152.613281 8.433594 152.894531 8.730469 152.980469 9.335938 C 153 9.441406 152.980469 9.5625 152.964844 9.71875 L 151.667969 10.027344 C 151.648438 9.785156 151.578125 9.628906 151.492188 9.527344 C 151.492188 9.527344 151.472656 9.507812 151.4375 9.507812 L 149.894531 9.507812 L 149.824219 9.527344 C 149.699219 9.5625 149.558594 9.648438 149.367188 9.769531 C 149.175781 9.890625 149.070312 9.960938 149.050781 10.011719 L 148.71875 10.546875 C 148.648438 10.652344 148.648438 10.722656 148.71875 10.738281 L 151.085938 11.554688 C 151.316406 11.621094 151.421875 11.777344 151.4375 12.003906 C 151.457031 12.230469 151.386719 12.472656 151.226562 12.730469 Z M 150.824219 13.40625 "/>
<path style=" stroke:none;fill-rule:nonzero;fill:rgb(100%,100%,100%);fill-opacity:1;" d="M 7.667969 1.351562 C 8.210938 0.449219 8.878906 0 9.6875 0 L 29.042969 0 C 29.601562 0 29.8125 0.277344 29.65625 0.847656 C 29.601562 1.023438 29.535156 1.195312 29.429688 1.367188 L 28.621094 2.71875 C 28.289062 3.273438 27.847656 3.671875 27.289062 3.914062 C 27.023438 4.019531 26.796875 4.085938 26.585938 4.085938 L 9.632812 4.085938 C 9.265625 4.085938 8.914062 4.3125 8.617188 4.78125 C 8.5625 4.867188 8.527344 4.953125 8.511719 5.023438 C 8.421875 5.316406 8.527344 5.457031 8.828125 5.457031 L 25.164062 5.457031 C 26.007812 5.457031 26.304688 5.871094 26.078125 6.703125 C 25.988281 6.996094 25.882812 7.257812 25.742188 7.484375 L 22.058594 13.597656 C 21.566406 14.410156 20.882812 14.878906 20.039062 14.964844 L 0.667969 14.964844 C 0.105469 14.964844 -0.105469 14.6875 0.0546875 14.117188 C 0.105469 13.945312 0.175781 13.769531 0.28125 13.597656 L 2.738281 9.527344 C 3.230469 8.710938 3.914062 8.246094 4.753906 8.15625 L 20.496094 8.15625 C 20.863281 8.15625 21.214844 7.933594 21.515625 7.484375 C 21.566406 7.394531 21.601562 7.308594 21.621094 7.222656 C 21.6875 6.945312 21.601562 6.808594 21.320312 6.808594 L 6.195312 6.808594 C 5.335938 6.808594 5.019531 6.390625 5.246094 5.578125 C 5.316406 5.351562 5.441406 5.09375 5.617188 4.78125 Z M 7.667969 1.351562 "/>
<path style=" stroke:none;fill-rule:nonzero;fill:rgb(100%,100%,100%);fill-opacity:1;" d="M 44.324219 0 L 34.199219 0 C 33.375 0.0859375 32.691406 0.535156 32.183594 1.367188 L 31.761719 2.042969 C 31.675781 2.21875 31.605469 2.390625 31.550781 2.5625 C 31.394531 3.117188 31.605469 3.414062 32.164062 3.414062 L 34.570312 3.414062 C 34.851562 3.414062 34.957031 3.550781 34.886719 3.828125 C 34.867188 3.898438 34.816406 3.984375 34.761719 4.085938 L 32.304688 8.15625 C 32.023438 8.625 31.691406 8.851562 31.289062 8.851562 L 28.882812 8.851562 C 28.671875 8.851562 28.445312 8.902344 28.164062 9.023438 C 27.621094 9.25 27.183594 9.648438 26.847656 10.203125 L 24.796875 13.597656 C 24.691406 13.769531 24.621094 13.945312 24.566406 14.117188 C 24.410156 14.671875 24.621094 14.964844 25.179688 14.964844 L 30.007812 14.964844 C 30.199219 14.964844 30.394531 14.929688 30.621094 14.894531 C 30.777344 14.949219 30.953125 14.964844 31.148438 14.964844 L 35.972656 14.964844 C 36.535156 14.964844 37.0625 14.6875 37.570312 14.117188 C 37.726562 13.945312 37.851562 13.769531 37.957031 13.597656 L 39.867188 10.203125 C 40.183594 9.648438 40.203125 9.25 39.921875 9.023438 C 39.78125 8.921875 39.625 8.851562 39.414062 8.851562 L 37.007812 8.851562 C 36.605469 8.851562 36.535156 8.625 36.796875 8.15625 L 39.078125 4.085938 C 39.132812 3.984375 39.203125 3.898438 39.253906 3.828125 C 39.5 3.550781 39.761719 3.414062 40.042969 3.414062 L 42.449219 3.414062 C 43.011719 3.414062 43.535156 3.136719 44.046875 2.5625 C 44.203125 2.390625 44.324219 2.21875 44.449219 2.042969 L 44.816406 1.367188 C 45.1875 0.535156 45.046875 0.0859375 44.324219 0 Z M 44.324219 0 "/>
<path style=" stroke:none;fill-rule:nonzero;fill:rgb(100%,100%,100%);fill-opacity:1;" d="M 69.683594 2.703125 C 69.121094 2.703125 68.910156 2.425781 69.070312 1.886719 C 69.121094 1.714844 69.191406 1.542969 69.296875 1.367188 C 69.417969 1.179688 69.507812 0.988281 69.558594 0.832031 C 69.71875 0.277344 69.507812 0.015625 68.929688 0.015625 L 49.992188 0.015625 C 49.203125 0.015625 48.519531 0.46875 47.976562 1.386719 L 40.589844 13.597656 C 40.464844 13.789062 40.378906 13.976562 40.34375 14.132812 C 40.183594 14.6875 40.394531 14.949219 40.972656 14.949219 L 58.679688 14.949219 C 60.277344 14.949219 61.628906 14.046875 62.734375 12.246094 L 62.769531 12.195312 C 63.277344 11.378906 63.945312 10.945312 64.769531 10.878906 C 65.558594 10.878906 66.242188 10.425781 66.789062 9.507812 L 70.070312 4.070312 C 70.175781 3.878906 70.261719 3.707031 70.296875 3.550781 C 70.453125 3.03125 70.242188 2.753906 69.683594 2.703125 Z M 63.785156 7.464844 C 63.488281 7.914062 63.136719 8.140625 62.769531 8.140625 L 53.503906 8.140625 C 53.222656 8.140625 53.136719 8.003906 53.207031 7.726562 C 53.222656 7.636719 54.820312 4.882812 54.871094 4.796875 C 55.171875 4.347656 55.519531 4.121094 55.890625 4.121094 L 65.15625 4.121094 C 65.4375 4.121094 65.523438 4.261719 65.453125 4.539062 C 65.4375 4.625 63.839844 7.378906 63.785156 7.464844 Z M 63.785156 7.464844 "/>
<path style=" stroke:none;fill-rule:nonzero;fill:rgb(100%,100%,100%);fill-opacity:1;" d="M 68.824219 14.929688 C 67.664062 14.929688 67.261719 14.375 67.558594 13.285156 C 67.648438 12.992188 67.804688 12.628906 68.050781 12.230469 L 74.613281 1.367188 C 75.15625 0.46875 75.824219 0 76.632812 0 L 83.265625 0 C 83.84375 0 84.054688 0.277344 83.894531 0.8125 C 83.84375 0.988281 83.773438 1.160156 83.667969 1.351562 L 79.984375 7.464844 C 79.878906 7.636719 79.808594 7.8125 79.753906 7.984375 C 79.597656 8.539062 79.808594 8.816406 80.371094 8.816406 L 83.984375 8.816406 C 84.773438 8.816406 85.457031 8.367188 86.003906 7.449219 L 89.6875 1.332031 C 90.179688 0.519531 90.863281 0.0507812 91.707031 -0.0351562 L 93.53125 -0.0351562 C 94.089844 -0.0351562 94.300781 0.242188 94.144531 0.8125 C 94.089844 1.023438 94.023438 1.195312 93.933594 1.332031 L 87.351562 12.195312 C 86.667969 13.320312 85.792969 14.097656 84.703125 14.566406 C 84.175781 14.792969 83.703125 14.894531 83.300781 14.894531 L 68.824219 14.894531 Z M 68.824219 14.929688 "/>
<path style=" stroke:none;fill-rule:nonzero;fill:rgb(100%,100%,100%);fill-opacity:1;" d="M 96.917969 1.351562 C 97.460938 0.449219 98.128906 0 98.933594 0 L 118.289062 0 C 118.851562 0 119.0625 0.277344 118.90625 0.847656 C 118.851562 1.023438 118.78125 1.195312 118.675781 1.367188 L 117.867188 2.71875 C 117.535156 3.273438 117.097656 3.671875 116.535156 3.914062 C 116.273438 4.019531 116.042969 4.085938 115.832031 4.085938 L 98.882812 4.085938 C 98.515625 4.085938 98.164062 4.3125 97.863281 4.78125 C 97.8125 4.867188 97.777344 4.953125 97.757812 5.023438 C 97.671875 5.316406 97.777344 5.457031 98.074219 5.457031 L 114.414062 5.457031 C 115.253906 5.457031 115.554688 5.871094 115.324219 6.703125 C 115.238281 6.996094 115.132812 7.257812 114.992188 7.484375 L 111.304688 13.597656 C 110.8125 14.410156 110.128906 14.878906 109.289062 14.964844 L 89.914062 14.964844 C 89.355469 14.964844 89.144531 14.6875 89.300781 14.117188 C 89.355469 13.945312 89.425781 13.769531 89.53125 13.597656 L 91.984375 9.527344 C 92.476562 8.710938 93.160156 8.246094 94.003906 8.15625 L 109.746094 8.15625 C 110.113281 8.15625 110.464844 7.933594 110.761719 7.484375 C 110.8125 7.394531 110.851562 7.308594 110.867188 7.222656 C 110.9375 6.945312 110.851562 6.808594 110.570312 6.808594 L 95.425781 6.808594 C 94.566406 6.808594 94.25 6.390625 94.476562 5.578125 C 94.546875 5.351562 94.671875 5.09375 94.847656 4.78125 Z M 96.917969 1.351562 "/>
</g>
</svg>
