<svg width="41" height="40" viewBox="0 0 41 40" fill="none" xmlns="http://www.w3.org/2000/svg">
<path d="M20.147 0C11.7141 0 4.85278 6.86127 4.85278 15.2942V29.4116C4.85278 31.358 6.43604 32.9413 8.38214 32.9413C10.3286 32.9413 11.9118 31.358 11.9118 29.4116V17.6471C11.9118 15.701 10.3286 14.1177 8.38214 14.1177C7.98602 14.1177 7.61127 14.198 7.25513 14.3188C7.75714 7.63824 13.3412 2.35291 20.147 2.35291C26.949 2.35291 32.5316 7.63336 33.0382 14.3094C32.6842 14.1882 32.3073 14.1177 31.9118 14.1177C29.9654 14.1177 28.3821 15.701 28.3821 17.6471V29.4116C28.3821 31.358 29.9654 32.9413 31.9118 32.9413C32.3262 32.9413 32.7184 32.8564 33.0883 32.7246V34.1177C33.0883 34.7668 32.5597 35.2942 31.9118 35.2942H23.4597C22.9723 33.9276 21.6786 32.9413 20.147 32.9413C18.2009 32.9413 16.6176 34.5245 16.6176 36.4706C16.6176 38.4167 18.2009 40 20.147 40C21.6786 40 22.9723 39.0134 23.4597 37.6471H31.9118C33.8579 37.6471 35.4412 36.0638 35.4412 34.1177C35.4412 27.0413 35.4412 22.3782 35.4412 15.2942C35.4412 6.86127 28.5799 0 20.147 0V0Z" fill="#9F9F9F"/>
<path d="M37.7941 16.6873V30.3713C39.1603 29.8843 40.147 28.5906 40.147 27.0587V19.9999C40.147 18.4683 39.1603 17.1746 37.7941 16.6873Z" fill="#9F9F9F"/>
<path d="M0.146973 19.9999V27.0587C0.146973 28.5906 1.13361 29.8843 2.49988 30.3713V16.6873C1.13361 17.1746 0.146973 18.4683 0.146973 19.9999Z" fill="#9F9F9F"/>
</svg>
