<?xml version="1.0" encoding="UTF-8"?>
<svg xmlns="http://www.w3.org/2000/svg" xmlns:xlink="http://www.w3.org/1999/xlink" width="120px" height="38px" viewBox="0 0 120 38" version="1.1">
<g id="surface1">
<path style=" stroke:none;fill-rule:nonzero;fill:white;fill-opacity:1;" d="M 109.851562 0.0742188 L 100.058594 14.582031 L 90.207031 0.0742188 L 80.242188 0.0742188 L 80.242188 37.875 L 92.300781 37.875 L 92.300781 24.273438 L 100.058594 35.609375 L 107.757812 24.273438 L 107.757812 37.875 L 119.816406 37.875 L 119.816406 0.0742188 Z M 43.671875 37.875 L 58.402344 37.875 L 61.363281 31.417969 L 64.324219 37.875 L 78.765625 37.875 L 61.363281 0.0742188 Z M 45.015625 20.378906 L 51.707031 0.0742188 L 38.910156 0.0742188 L 34.550781 16.40625 L 30.191406 0.0742188 L 21.925781 0.0742188 L 17.566406 16.40625 L 13.207031 0.0742188 L 0.414062 0.0742188 L 8.550781 24.765625 Z M 11.261719 33.003906 L 12.867188 37.875 L 39.25 37.875 L 42.078125 29.296875 Z M 11.261719 33.003906 "/>
<path style=" stroke:none;fill-rule:nonzero;fill:white;fill-opacity:1;" d="M 16.601562 28.269531 C 16.601562 30.007812 15.191406 31.417969 13.457031 31.417969 C 11.71875 31.417969 10.3125 30.007812 10.3125 28.269531 C 10.3125 26.53125 11.71875 25.121094 13.457031 25.121094 C 15.191406 25.121094 16.601562 26.53125 16.601562 28.269531 Z M 16.601562 28.269531 "/>
<path style=" stroke:none;fill-rule:nonzero;fill:white;fill-opacity:1;" d="M 30.011719 26.695312 C 30.011719 28.433594 28.605469 29.84375 26.867188 29.84375 C 25.128906 29.84375 23.722656 28.433594 23.722656 26.695312 C 23.722656 24.957031 25.128906 23.546875 26.867188 23.546875 C 28.605469 23.546875 30.011719 24.957031 30.011719 26.695312 Z M 30.011719 26.695312 "/>
<path style=" stroke:none;fill-rule:nonzero;fill:white;fill-opacity:1;" d="M 43.039062 25.121094 C 43.039062 26.859375 41.628906 28.269531 39.894531 28.269531 C 38.15625 28.269531 36.746094 26.859375 36.746094 25.121094 C 36.746094 23.382812 38.15625 21.972656 39.894531 21.972656 C 41.628906 21.972656 43.039062 23.382812 43.039062 25.121094 Z M 43.039062 25.121094 "/>
</g>
</svg>
