<svg width="95" height="36" fill="none" xmlns="http://www.w3.org/2000/svg"><path fill-rule="evenodd" clip-rule="evenodd" d="M14.59 18.327 9.766 28.803 6.66 13.916a.498.498 0 0 0-.371-.382c-.718-.173-1.788-.259-3.209-.259-1.222 0-2.119.064-2.691.191a.498.498 0 0 0-.378.594l4.337 19.633a.996.996 0 0 0 .793.765c1.307.24 2.613.31 3.92.211a15.925 15.925 0 0 0 3.14-.562 2.988 2.988 0 0 0 1.953-1.746l3.048-7.473 3.047 7.473a2.988 2.988 0 0 0 1.954 1.746c1.046.296 2.093.483 3.14.562 1.306.099 2.613.028 3.92-.211a.996.996 0 0 0 .792-.765l4.338-19.633a.498.498 0 0 0-.378-.594c-.573-.127-1.47-.19-2.692-.19-1.42 0-2.49.085-3.208.258a.498.498 0 0 0-.372.382L24.64 28.803l-4.824-10.476a.497.497 0 0 0-.159-.194.495.495 0 0 0-.275-.157 10.539 10.539 0 0 0-2.307-.215c-.647 0-1.331.072-2.052.215a.49.49 0 0 0-.274.157.497.497 0 0 0-.16.194ZM17.642.148l5.136 2.966a.83.83 0 0 1 .415.718v6.086a.83.83 0 0 1-.421.722l-5.138 2.91a1.107 1.107 0 0 1-1.09 0l-5.139-2.91a.83.83 0 0 1-.42-.722V3.832a.83.83 0 0 1 .414-.718L16.535.148a1.107 1.107 0 0 1 1.107 0Zm-.553 2.198c.556 0 1.007-.225 1.007-.503s-.45-.504-1.007-.504c-.556 0-1.007.226-1.007.504s.45.503 1.007.503Zm1.007 1.007c0 .278-.45.503-1.007.503-.556 0-1.007-.225-1.007-.503s.45-.504 1.007-.504c.556 0 1.007.226 1.007.504Zm-1.007 2.013c.556 0 1.007-.225 1.007-.503s-.45-.504-1.007-.504c-.556 0-1.007.226-1.007.504s.45.503 1.007.503Zm4.03-2.013c0 .278-.45.503-1.007.503-.556 0-1.006-.225-1.006-.503s.45-.504 1.006-.504c.557 0 1.007.226 1.007.504Zm-7.053.503c.556 0 1.006-.225 1.006-.503s-.45-.504-1.006-.504c-.557 0-1.007.226-1.007.504s.45.503 1.007.503Zm6.4 5.716c-.3.049-.48-.455-.4-1.125.08-.67.382-1.19.677-1.164.294.027.473.53.399 1.125-.073.594-.376 1.115-.677 1.164Zm-8.587-2.277c.024.498.293.875.602.841.309-.033.528-.472.49-.98-.04-.507-.31-.884-.604-.841-.294.043-.512.481-.488.98Zm1.85 2.116c-.32.026-.61-.366-.648-.874-.039-.508.178-.95.484-.985.306-.035.598.356.65.874.052.519-.166.96-.486.985Zm.624.427c.05.52.358.927.688.91.33-.018.547-.462.485-.992-.064-.53-.374-.936-.691-.908-.317.027-.533.47-.482.99Zm2.58-3.448c.145.064.31.063.454-.003L20.16 5.11a.158.158 0 0 1 .146.28l-2.518 1.474a.553.553 0 0 0-.273.452l-.148 3.121a.184.184 0 0 1-.367.003l-.187-3.122a.553.553 0 0 0-.282-.45l-2.643-1.477a.158.158 0 0 1 .141-.282l2.905 1.28Zm33.732 6.904a.968.968 0 0 0-.79.96v19.927c0 .463.318.866.772.955.78.152 1.995.354 2.904.335.747-.015 1.728-.187 2.405-.325a.965.965 0 0 0 .765-.983l-.278-9.389a.076.076 0 0 1 .142-.04l5.717 9.86a.97.97 0 0 0 .645.468c.695.14 2.095.397 3.104.41.962.01 2.254-.193 3.07-.344a.968.968 0 0 0 .787-.96V14.245a.966.966 0 0 0-.778-.957c-.713-.137-1.776-.31-2.58-.316-.843-.005-1.963.173-2.709.313a.965.965 0 0 0-.78.984l.279 10.016a.075.075 0 0 1-.141.04l-5.9-10.486a.97.97 0 0 0-.658-.48c-.699-.136-2.089-.381-3.09-.387-.901-.005-2.105.181-2.886.323Zm-12.108.002a.969.969 0 0 0-.793.96v19.915c0 .468.324.873.784.959.802.15 2.062.351 3.003.341.852-.008 1.984-.196 2.729-.338a.968.968 0 0 0 .78-.959v-19.92a.969.969 0 0 0-.79-.961c-.745-.136-1.872-.313-2.72-.321-.935-.01-2.19.18-2.992.324Z" fill="url(#winr-logo_svg__a)"></path><path d="M74.721 14.448a1 1 0 0 1 1-1h8.272c1.054 0 2.098.111 3.132.334 1.053.203 1.986.578 2.796 1.125.831.527 1.5 1.247 2.007 2.159.507.891.76 2.016.76 3.374 0 1.317-.324 2.483-.973 3.496a6.01 6.01 0 0 1-1.789 1.764c-.509.33-.72 1.005-.398 1.519l4.064 6.479a.973.973 0 0 1-.688 1.491c-1.043.14-2.415.291-3.353.282-1.115-.011-2.407-.258-3.061-.4a.957.957 0 0 1-.638-.488l-3.888-7.233a.133.133 0 0 0-.25.063v6.765c0 .465-.32.868-.777.956-.776.15-1.983.35-2.886.337-.798-.01-1.853-.192-2.56-.333a.966.966 0 0 1-.77-.956V14.448Zm6.932 7.09a1 1 0 0 0 1 1h.428c.244 0 .507-.02.79-.061.305-.04.578-.122.822-.243.263-.142.476-.325.638-.548.182-.243.274-.557.274-.942 0-.385-.071-.69-.213-.912a1.26 1.26 0 0 0-.547-.486 1.793 1.793 0 0 0-.73-.213 4.826 4.826 0 0 0-.73-.061h-.732a1 1 0 0 0-1 1v1.466Z" fill="#fff"></path><defs><linearGradient id="winr-logo_svg__a" x1="0" y1="17.736" x2="69.908" y2="17.736" gradientUnits="userSpaceOnUse"><stop stop-color="#FFE714"></stop><stop offset="1" stop-color="#FFD000"></stop></linearGradient></defs></svg>