<svg width="86" height="28" viewBox="0 0 86 28" fill="none" xmlns="http://www.w3.org/2000/svg">
<path d="M0 26.7539V22.5703L6.09961 4.14844H0.878906V0.298828H10.3008V4.14844L4.11328 22.9043H10.3008V26.7539H0Z" fill="white"/>
<path d="M15.7641 21.6387V21.3223V5.73047C15.7641 5.64844 15.7641 5.54297 15.7641 5.41406C15.7758 5.27344 15.8109 5.00391 15.8695 4.60547C15.9398 4.20703 16.0336 3.82617 16.1508 3.46289C16.268 3.09961 16.4555 2.70117 16.7133 2.26758C16.9711 1.82227 17.2699 1.44141 17.6098 1.125C17.9613 0.808594 18.4242 0.544922 18.9984 0.333984C19.5727 0.111328 20.2172 0 20.932 0C21.6469 0 22.2914 0.105469 22.8656 0.316406C23.4398 0.527344 23.8969 0.802734 24.2367 1.14258C24.5883 1.4707 24.893 1.83984 25.1508 2.25C25.4203 2.66016 25.6137 3.07031 25.7309 3.48047C25.848 3.89062 25.9359 4.26562 25.9945 4.60547C26.0648 4.93359 26.1 5.20312 26.1 5.41406L26.1176 5.73047V21.3223C26.1176 21.4043 26.1117 21.5156 26.1 21.6562C26.1 21.7852 26.0648 22.0488 25.9945 22.4473C25.9359 22.8457 25.848 23.2266 25.7309 23.5898C25.6137 23.9414 25.4262 24.3398 25.1684 24.7852C24.9105 25.2188 24.6059 25.5938 24.2543 25.9102C23.9027 26.2266 23.4398 26.4961 22.8656 26.7188C22.2914 26.9297 21.6469 27.0352 20.932 27.0352C20.2172 27.0352 19.5727 26.9297 18.9984 26.7188C18.4242 26.5078 17.9613 26.2383 17.6098 25.9102C17.2699 25.5703 16.9711 25.1953 16.7133 24.7852C16.4555 24.375 16.268 23.9707 16.1508 23.5723C16.0336 23.1621 15.9398 22.793 15.8695 22.4648C15.8109 22.125 15.7758 21.8496 15.7641 21.6387ZM19.6488 21.3223C19.6488 21.3691 19.6488 21.4395 19.6488 21.5332C19.6488 21.6152 19.6664 21.7676 19.7016 21.9902C19.7484 22.2129 19.807 22.4121 19.8773 22.5879C19.9594 22.752 20.0883 22.9043 20.2641 23.0449C20.4516 23.1855 20.6742 23.2559 20.932 23.2559C21.1898 23.2559 21.4066 23.1914 21.5824 23.0625C21.7699 22.9219 21.9047 22.7578 21.9867 22.5703C22.0688 22.3828 22.1273 22.1953 22.1625 22.0078C22.2094 21.8203 22.2328 21.6562 22.2328 21.5156V21.3223V5.73047C22.2328 5.67188 22.2328 5.60156 22.2328 5.51953C22.2328 5.4375 22.2094 5.28516 22.1625 5.0625C22.1273 4.82812 22.0688 4.62891 21.9867 4.46484C21.9047 4.28906 21.7699 4.13086 21.5824 3.99023C21.4066 3.84961 21.1898 3.7793 20.932 3.7793C20.5219 3.7793 20.2113 3.94336 20.0004 4.27148C19.7895 4.58789 19.6781 4.91016 19.6664 5.23828L19.6488 5.73047V21.3223Z" fill="white"/>
<path d="M32.3367 26.7539V0.298828H36.2215V9.10547V10.2656H36.3621L36.5555 9.10547L39.7898 0.298828H43.5691L40.0008 9L44.0438 26.7539H40.2469L37.5574 15.2402L37.452 14.6953H37.3465L37.118 15.2402L36.2215 17.4023V26.7539H32.3367Z" fill="white"/>
<path d="M48.7687 0.298828H52.5832L54.5344 8.75391L54.6398 9.7207H54.7102L54.8156 8.75391L56.7668 0.298828H60.5812L56.6262 15.4863V26.7539H52.7414V15.4863L48.7687 0.298828Z" fill="white"/>
<path d="M65.5172 21.6387V21.3223V5.73047C65.5172 5.64844 65.5172 5.54297 65.5172 5.41406C65.5289 5.27344 65.5641 5.00391 65.6227 4.60547C65.693 4.20703 65.7867 3.82617 65.9039 3.46289C66.0211 3.09961 66.2086 2.70117 66.4664 2.26758C66.7242 1.82227 67.023 1.44141 67.3629 1.125C67.7145 0.808594 68.1773 0.544922 68.7516 0.333984C69.3258 0.111328 69.9703 0 70.6852 0C71.4 0 72.0445 0.105469 72.6188 0.316406C73.193 0.527344 73.65 0.802734 73.9898 1.14258C74.3414 1.4707 74.6461 1.83984 74.9039 2.25C75.1734 2.66016 75.3668 3.07031 75.484 3.48047C75.6012 3.89062 75.6891 4.26562 75.7477 4.60547C75.818 4.93359 75.8531 5.20312 75.8531 5.41406L75.8707 5.73047V21.3223C75.8707 21.4043 75.8648 21.5156 75.8531 21.6562C75.8531 21.7852 75.818 22.0488 75.7477 22.4473C75.6891 22.8457 75.6012 23.2266 75.484 23.5898C75.3668 23.9414 75.1793 24.3398 74.9215 24.7852C74.6637 25.2188 74.359 25.5938 74.0074 25.9102C73.6559 26.2266 73.193 26.4961 72.6188 26.7188C72.0445 26.9297 71.4 27.0352 70.6852 27.0352C69.9703 27.0352 69.3258 26.9297 68.7516 26.7188C68.1773 26.5078 67.7145 26.2383 67.3629 25.9102C67.023 25.5703 66.7242 25.1953 66.4664 24.7852C66.2086 24.375 66.0211 23.9707 65.9039 23.5723C65.7867 23.1621 65.693 22.793 65.6227 22.4648C65.5641 22.125 65.5289 21.8496 65.5172 21.6387ZM69.402 21.3223C69.402 21.3691 69.402 21.4395 69.402 21.5332C69.402 21.6152 69.4195 21.7676 69.4547 21.9902C69.5016 22.2129 69.5602 22.4121 69.6305 22.5879C69.7125 22.752 69.8414 22.9043 70.0172 23.0449C70.2047 23.1855 70.4273 23.2559 70.6852 23.2559C70.943 23.2559 71.1598 23.1914 71.3355 23.0625C71.523 22.9219 71.6578 22.7578 71.7398 22.5703C71.8219 22.3828 71.8805 22.1953 71.9156 22.0078C71.9625 21.8203 71.9859 21.6562 71.9859 21.5156V21.3223V5.73047C71.9859 5.67188 71.9859 5.60156 71.9859 5.51953C71.9859 5.4375 71.9625 5.28516 71.9156 5.0625C71.8805 4.82812 71.8219 4.62891 71.7398 4.46484C71.6578 4.28906 71.523 4.13086 71.3355 3.99023C71.1598 3.84961 70.943 3.7793 70.6852 3.7793C70.275 3.7793 69.9645 3.94336 69.7535 4.27148C69.5426 4.58789 69.4313 4.91016 69.4195 5.23828L69.402 5.73047V21.3223Z" fill="white"/>
<path d="M81.5801 26.7539V22.7637H85.3594V26.7539H81.5801Z" fill="#3FAFED"/>
</svg>
