<svg width="41" height="40" viewBox="0 0 41 40" fill="none" xmlns="http://www.w3.org/2000/svg">
<g clip-path="url(#clip0)">
<path d="M30.7381 35.6069C30.4083 35.05 29.6897 34.8658 29.1327 35.1955C26.3386 36.8498 23.2377 37.6561 20.1568 37.6559C16.2936 37.6558 12.4626 36.3874 9.31099 33.9333L10.4169 33.6726C11.0468 33.524 11.4372 32.893 11.2886 32.263C11.14 31.6331 10.509 31.2429 9.87903 31.3914L6.56435 32.1729C6.03528 32.2976 5.66138 32.7698 5.66138 33.3134V36.628C5.66138 37.2752 6.18606 37.7999 6.83325 37.7999C7.48044 37.7999 8.00513 37.2752 8.00513 36.628V35.8854C11.5494 38.598 15.8348 40.0001 20.1572 40C23.6473 39.9999 27.1612 39.0864 30.3266 37.2122C30.8836 36.8826 31.0678 36.1638 30.7381 35.6069Z" fill="#9F9F9F"/>
<path d="M8.75515 9.73221L7.97367 6.41752C7.8489 5.88846 7.37671 5.51455 6.83312 5.51455H3.51851C2.87132 5.51455 2.34664 6.03924 2.34664 6.68643C2.34664 7.33361 2.87132 7.8583 3.51851 7.8583H4.26085C-0.642114 14.2648 -1.26063 23.0944 2.93437 30.1799C3.26406 30.7368 3.98289 30.921 4.53976 30.5913C5.09664 30.2616 5.28078 29.5428 4.95109 28.986C1.22257 22.6882 1.80211 14.829 6.2132 9.16408L6.47398 10.27C6.6225 10.8999 7.25359 11.2903 7.88351 11.1417C8.51343 10.9932 8.90375 10.3621 8.75515 9.73221Z" fill="#9F9F9F"/>
<path d="M33.4604 2.19962C32.8132 2.19962 32.2885 2.72431 32.2885 3.3715V4.11376C25.8822 -0.789129 17.0525 -1.40764 9.967 2.78736C9.41013 3.11704 9.22591 3.83579 9.5556 4.39275C9.88528 4.94962 10.604 5.13384 11.161 4.80415C17.4586 1.07564 25.3178 1.65525 30.9827 6.06626L29.8768 6.32704C29.2468 6.47556 28.8565 7.10665 29.0051 7.73657C29.1536 8.3665 29.7847 8.75673 30.4147 8.60822L33.7293 7.82673C34.2585 7.70196 34.6323 7.22978 34.6323 6.68611V3.3715C34.6322 2.72431 34.1076 2.19962 33.4604 2.19962Z" fill="#9F9F9F"/>
<path d="M36.7752 32.1416H36.0329C40.9358 25.7352 41.5544 16.9056 37.3594 9.82007C37.0297 9.26319 36.3109 9.07898 35.754 9.40866C35.1971 9.73835 35.0129 10.4571 35.3426 11.0141C39.0711 17.3117 38.4915 25.171 34.0804 30.8358L33.8197 29.7299C33.6712 29.1 33.0401 28.7097 32.4101 28.8583C31.7802 29.0068 31.39 29.6379 31.5385 30.2678L32.32 33.5825C32.4447 34.1116 32.9169 34.4855 33.4606 34.4855H36.7752C37.4224 34.4855 37.9471 33.9608 37.9471 33.3136C37.9471 32.6663 37.4224 32.1416 36.7752 32.1416Z" fill="#9F9F9F"/>
<path d="M31.8658 17.2656H31.1418C30.8701 16.1753 30.4346 15.1249 29.8541 14.1599L30.3669 13.6471C30.8246 13.1895 30.8246 12.4475 30.3669 11.9898L28.1573 9.78015C27.6997 9.32257 26.9576 9.32257 26.5 9.78015L25.9872 10.293C25.022 9.71234 23.9719 9.27695 22.8815 9.00531V8.28125C22.8815 7.63406 22.3568 7.10937 21.7096 7.10937H18.5846C17.9374 7.10937 17.4127 7.63406 17.4127 8.28125V9.00531C16.3223 9.27703 15.2722 9.71242 14.307 10.293L13.7942 9.78015C13.3366 9.32257 12.5946 9.32257 12.1369 9.78015L9.92725 11.9898C9.46959 12.4474 9.46959 13.1894 9.92725 13.6471L10.4401 14.1599C9.85952 15.1249 9.42397 16.1753 9.15241 17.2656H8.42834C7.78116 17.2656 7.25647 17.7903 7.25647 18.4375V21.5625C7.25647 22.2097 7.78116 22.7344 8.42834 22.7344H9.15241C9.42405 23.8247 9.85959 24.8751 10.4401 25.8401L9.92725 26.3529C9.46959 26.8105 9.46959 27.5525 9.92725 28.0102L12.1369 30.2198C12.5945 30.6774 13.3365 30.6774 13.7942 30.2198L14.307 29.707C15.272 30.2876 16.3224 30.7231 17.4127 30.9947V31.7187C17.4127 32.3659 17.9374 32.8906 18.5846 32.8906H21.7096C22.3568 32.8906 22.8815 32.3659 22.8815 31.7187V30.9947C23.9718 30.723 25.0222 30.2875 25.9872 29.707L26.5 30.2198C26.9576 30.6774 27.6996 30.6774 28.1573 30.2198L30.3669 28.0102C30.8246 27.5526 30.8246 26.8105 30.3669 26.3529L29.8541 25.8401C30.4347 24.8751 30.8702 23.8247 31.1418 22.7344H31.8658C32.513 22.7344 33.0377 22.2097 33.0377 21.5625V18.4375C33.0377 17.7903 32.513 17.2656 31.8658 17.2656ZM20.1471 24.6876C17.5582 24.6876 15.4595 22.5889 15.4595 20C15.4595 17.4111 17.5582 15.3124 20.1471 15.3124C22.736 15.3124 24.8347 17.4111 24.8347 20C24.8347 22.5889 22.736 24.6876 20.1471 24.6876Z" fill="#9F9F9F"/>
</g>
<defs>
<clipPath id="clip0">
<rect width="40" height="40" fill="white" transform="translate(0.146973)"/>
</clipPath>
</defs>
</svg>
