<?xml version="1.0" encoding="UTF-8"?>
<svg xmlns="http://www.w3.org/2000/svg" xmlns:xlink="http://www.w3.org/1999/xlink" width="120px" height="31px" viewBox="0 0 118 31" version="1.1">
<g id="surface1">
<path style=" stroke:none;fill-rule:nonzero;fill:rgb(11.764706%,76.862745%,34.901961%);fill-opacity:1;" d="M 22.796875 22.011719 L 22.800781 22.011719 L 22.800781 19.402344 L 22.796875 19.402344 Z M 5.390625 0 C 4.570312 0 3.789062 0.328125 3.207031 0.90625 L 0.902344 3.222656 C 0.617188 3.511719 0.390625 3.855469 0.234375 4.230469 C 0.078125 4.605469 0 5.007812 0 5.417969 L 0 24.800781 C 0 26.445312 0.648438 28.019531 1.804688 29.183594 C 2.960938 30.347656 4.53125 31 6.164062 31 L 8.027344 31 L 8.027344 18.328125 C 8.027344 17.785156 8.132812 17.25 8.339844 16.746094 C 8.546875 16.246094 8.847656 15.789062 9.230469 15.40625 C 9.609375 15.023438 10.0625 14.71875 10.5625 14.511719 C 11.0625 14.300781 11.597656 14.195312 12.136719 14.195312 L 19.105469 14.195312 L 19.105469 11.585938 L 8.027344 11.585938 L 8.027344 8.984375 L 19.71875 8.984375 C 20.125 8.984375 20.527344 9.0625 20.898438 9.21875 C 21.273438 9.375 21.613281 9.605469 21.898438 9.890625 C 22.1875 10.179688 22.414062 10.523438 22.566406 10.898438 C 22.722656 11.273438 22.800781 11.679688 22.800781 12.085938 L 22.800781 13.707031 C 22.804688 14.167969 22.699219 14.628906 22.5 15.046875 C 22.703125 14.628906 22.808594 14.171875 22.804688 13.707031 L 22.804688 0 Z M 22.496094 15.046875 C 22.367188 15.316406 22.199219 15.5625 22 15.785156 C 22.199219 15.566406 22.367188 15.316406 22.496094 15.046875 Z M 22.496094 15.046875 "/>
<path style=" stroke:none;fill-rule:nonzero;fill:rgb(100%,100%,100%);fill-opacity:1;" d="M 24.660156 0 L 22.800781 0 L 22.800781 13.703125 C 22.800781 14.109375 22.722656 14.515625 22.566406 14.890625 C 22.410156 15.265625 22.183594 15.609375 21.898438 15.894531 C 21.613281 16.183594 21.273438 16.414062 20.898438 16.566406 C 20.523438 16.722656 20.121094 16.804688 19.71875 16.804688 L 12.234375 16.804688 C 12.164062 16.804688 12.097656 16.816406 12.035156 16.84375 C 11.972656 16.867188 11.917969 16.90625 11.871094 16.953125 C 11.820312 17.003906 11.785156 17.058594 11.757812 17.121094 C 11.730469 17.183594 11.71875 17.253906 11.71875 17.320312 L 11.71875 18.890625 C 11.71875 18.957031 11.730469 19.027344 11.757812 19.089844 C 11.785156 19.152344 11.820312 19.207031 11.871094 19.253906 C 11.917969 19.304688 11.972656 19.339844 12.035156 19.367188 C 12.097656 19.394531 12.164062 19.40625 12.234375 19.40625 L 22.800781 19.40625 L 22.800781 22.011719 L 8.023438 22.011719 L 8.023438 31 L 25.4375 31 C 26.253906 31 27.039062 30.671875 27.617188 30.09375 L 29.921875 27.773438 C 30.207031 27.484375 30.433594 27.144531 30.589844 26.769531 C 30.746094 26.390625 30.824219 25.988281 30.824219 25.582031 L 30.824219 6.199219 C 30.824219 4.554688 30.175781 2.980469 29.019531 1.816406 C 27.863281 0.652344 26.292969 0 24.660156 0 Z M 24.660156 0 "/>
<path style=" stroke:none;fill-rule:nonzero;fill:rgb(0%,0%,0%);fill-opacity:1;" d="M 22.800781 19.402344 L 22.800781 22.011719 L 8.027344 22.011719 L 8.027344 18.328125 C 8.027344 17.785156 8.132812 17.25 8.339844 16.746094 C 8.546875 16.246094 8.847656 15.789062 9.230469 15.40625 C 9.609375 15.023438 10.0625 14.71875 10.5625 14.511719 C 11.0625 14.300781 11.597656 14.195312 12.136719 14.195312 L 19.105469 14.195312 L 19.105469 11.585938 L 8.027344 11.585938 L 8.027344 8.984375 L 19.71875 8.984375 C 20.125 8.984375 20.527344 9.0625 20.898438 9.21875 C 21.273438 9.375 21.613281 9.605469 21.898438 9.890625 C 22.1875 10.179688 22.414062 10.523438 22.566406 10.898438 C 22.722656 11.273438 22.800781 11.679688 22.800781 12.085938 L 22.800781 13.707031 C 22.800781 13.765625 22.796875 13.828125 22.796875 13.886719 C 22.796875 13.949219 22.792969 14.007812 22.785156 14.066406 C 22.78125 14.089844 22.777344 14.109375 22.773438 14.132812 C 22.773438 14.15625 22.769531 14.179688 22.761719 14.203125 C 22.761719 14.226562 22.757812 14.25 22.753906 14.269531 C 22.746094 14.320312 22.734375 14.367188 22.726562 14.410156 C 22.71875 14.433594 22.710938 14.460938 22.707031 14.480469 C 22.699219 14.511719 22.691406 14.542969 22.683594 14.574219 C 22.679688 14.585938 22.675781 14.589844 22.671875 14.601562 C 22.644531 14.703125 22.609375 14.800781 22.566406 14.894531 C 22.546875 14.949219 22.523438 15 22.5 15.050781 C 22.46875 15.117188 22.4375 15.179688 22.398438 15.238281 C 22.363281 15.304688 22.320312 15.371094 22.28125 15.4375 L 22.28125 15.441406 C 22.242188 15.496094 22.199219 15.554688 22.160156 15.605469 C 22.152344 15.613281 22.148438 15.621094 22.144531 15.621094 C 22.144531 15.625 22.136719 15.636719 22.128906 15.644531 C 22.089844 15.695312 22.046875 15.746094 22 15.792969 C 21.710938 16.113281 21.359375 16.371094 20.96875 16.542969 C 20.574219 16.71875 20.148438 16.808594 19.71875 16.808594 L 12.234375 16.804688 C 12.167969 16.804688 12.101562 16.820312 12.039062 16.84375 C 11.976562 16.871094 11.917969 16.910156 11.871094 16.957031 C 11.824219 17.003906 11.785156 17.0625 11.757812 17.125 C 11.734375 17.1875 11.71875 17.253906 11.71875 17.324219 L 11.71875 18.890625 C 11.71875 18.957031 11.734375 19.027344 11.757812 19.089844 C 11.785156 19.152344 11.824219 19.207031 11.871094 19.257812 C 11.917969 19.304688 11.976562 19.34375 12.039062 19.367188 C 12.101562 19.394531 12.167969 19.40625 12.234375 19.40625 Z M 22.800781 19.402344 "/>
<path style=" stroke:none;fill-rule:nonzero;fill:rgb(100%,100%,100%);fill-opacity:1;" d="M 44.78125 6.152344 L 49.425781 6.152344 L 49.425781 4.84375 L 44.90625 4.84375 C 43.539062 4.84375 42.914062 5.472656 42.914062 6.847656 L 42.914062 11.625 L 44.617188 11.625 L 44.617188 9.25 L 48.761719 9.25 L 48.761719 7.945312 L 44.617188 7.945312 L 44.617188 6.316406 C 44.617188 6.230469 44.695312 6.152344 44.78125 6.152344 Z M 58.082031 4.84375 L 49.855469 4.84375 L 49.855469 6.152344 L 53.109375 6.152344 L 53.109375 11.625 L 54.816406 11.625 L 54.816406 6.152344 L 58.082031 6.152344 Z M 66.871094 6.867188 C 66.871094 5.484375 66.234375 4.84375 64.847656 4.84375 L 58.644531 4.84375 L 58.644531 11.625 L 60.347656 11.625 L 60.347656 8.894531 L 63.546875 8.894531 L 64.941406 11.625 L 66.871094 11.625 L 65.445312 8.84375 C 66.417969 8.679688 66.871094 8.039062 66.871094 6.867188 Z M 60.347656 6.152344 L 64.992188 6.152344 C 65.085938 6.152344 65.15625 6.230469 65.15625 6.316406 L 65.15625 7.402344 C 65.15625 7.5 65.085938 7.566406 64.992188 7.566406 L 60.347656 7.566406 Z M 67.691406 4.84375 L 67.691406 11.625 L 69.398438 11.625 L 69.398438 4.84375 Z M 77.96875 8.234375 C 78.539062 7.972656 78.789062 7.429688 78.789062 6.625 C 78.789062 5.550781 78.257812 4.84375 77.015625 4.84375 L 70.5625 4.84375 L 70.5625 11.625 L 77.015625 11.625 C 78.257812 11.625 78.789062 10.917969 78.789062 9.84375 C 78.789062 9.039062 78.539062 8.496094 77.96875 8.234375 Z M 77.074219 6.316406 L 77.074219 7.402344 C 77.074219 7.5 77.003906 7.566406 76.910156 7.566406 L 72.265625 7.566406 L 72.265625 6.152344 L 76.910156 6.152344 C 77.003906 6.152344 77.074219 6.230469 77.074219 6.316406 Z M 77.074219 10.152344 C 77.074219 10.238281 77.003906 10.316406 76.910156 10.316406 L 72.265625 10.316406 L 72.265625 8.894531 L 76.910156 8.894531 C 77.003906 8.894531 77.074219 8.96875 77.074219 9.066406 Z M 81.460938 6.152344 L 85.933594 6.152344 L 85.933594 4.84375 L 81.414062 4.84375 C 80.046875 4.84375 79.421875 5.472656 79.421875 6.847656 L 79.421875 9.621094 C 79.421875 10.996094 80.046875 11.625 81.414062 11.625 L 85.933594 11.625 L 85.933594 10.296875 L 81.289062 10.296875 C 81.203125 10.296875 81.125 10.21875 81.125 10.132812 L 81.125 8.914062 L 85.265625 8.914062 L 85.265625 7.605469 L 81.125 7.605469 L 81.125 6.480469 C 81.125 6.296875 81.28125 6.152344 81.460938 6.152344 Z M 44.78125 19.714844 L 49.425781 19.714844 L 49.425781 18.40625 L 44.90625 18.40625 C 43.539062 18.40625 42.914062 19.035156 42.914062 20.410156 L 42.914062 25.1875 L 44.617188 25.1875 L 44.617188 22.8125 L 48.761719 22.8125 L 48.761719 21.507812 L 44.617188 21.507812 L 44.617188 19.878906 C 44.617188 19.792969 44.695312 19.714844 44.78125 19.714844 Z M 50.082031 18.40625 L 50.082031 25.1875 L 51.789062 25.1875 L 51.789062 18.40625 Z M 54.535156 19.714844 L 60.894531 19.714844 L 60.894531 18.40625 L 54.660156 18.40625 C 53.292969 18.40625 52.667969 19.035156 52.667969 20.410156 L 52.667969 23.183594 C 52.667969 24.558594 53.292969 25.1875 54.660156 25.1875 L 57.609375 25.1875 C 58.417969 25.1875 58.96875 24.964844 59.285156 24.488281 L 59.515625 25.1875 L 60.894531 25.1875 L 60.894531 21.167969 L 56.78125 21.167969 L 56.78125 22.476562 L 59.179688 22.476562 L 59.179688 23.714844 C 59.179688 23.800781 59.101562 23.859375 59.015625 23.859375 L 54.535156 23.859375 C 54.449219 23.859375 54.371094 23.78125 54.371094 23.695312 L 54.371094 19.878906 C 54.371094 19.792969 54.449219 19.714844 54.535156 19.714844 Z M 68.503906 18.40625 L 68.503906 21.167969 L 63.695312 21.167969 L 63.695312 18.40625 L 61.992188 18.40625 L 61.992188 25.1875 L 63.695312 25.1875 L 63.695312 22.476562 L 68.503906 22.476562 L 68.503906 25.1875 L 70.21875 25.1875 L 70.21875 18.40625 Z M 79 18.40625 L 70.777344 18.40625 L 70.777344 19.714844 L 74.03125 19.714844 L 74.03125 25.1875 L 75.734375 25.1875 L 75.734375 19.714844 L 79 19.714844 Z M 81.601562 19.714844 L 86.074219 19.714844 L 86.074219 18.40625 L 81.554688 18.40625 C 80.1875 18.40625 79.5625 19.035156 79.5625 20.410156 L 79.5625 23.183594 C 79.5625 24.558594 80.1875 25.1875 81.554688 25.1875 L 86.074219 25.1875 L 86.074219 23.859375 L 81.429688 23.859375 C 81.34375 23.859375 81.265625 23.78125 81.265625 23.695312 L 81.265625 22.476562 L 85.410156 22.476562 L 85.410156 21.167969 L 81.265625 21.167969 L 81.265625 20.042969 C 81.265625 19.859375 81.421875 19.714844 81.601562 19.714844 Z M 95.128906 20.429688 C 95.128906 19.046875 94.492188 18.40625 93.105469 18.40625 L 86.902344 18.40625 L 86.902344 25.1875 L 88.605469 25.1875 L 88.605469 22.457031 L 91.804688 22.457031 L 93.199219 25.1875 L 95.128906 25.1875 L 93.703125 22.40625 C 94.675781 22.242188 95.128906 21.601562 95.128906 20.429688 Z M 88.605469 19.714844 L 93.25 19.714844 C 93.34375 19.714844 93.414062 19.792969 93.414062 19.878906 L 93.414062 20.964844 C 93.414062 21.0625 93.34375 21.128906 93.25 21.128906 L 88.605469 21.128906 Z M 103.5625 19.714844 L 103.5625 18.40625 L 97.6875 18.40625 C 96.308594 18.40625 95.671875 19.046875 95.671875 20.429688 C 95.671875 21.816406 96.308594 22.457031 97.6875 22.457031 L 102.019531 22.457031 C 102.117188 22.457031 102.183594 22.53125 102.183594 22.628906 L 102.183594 23.695312 C 102.183594 23.78125 102.117188 23.859375 102.019531 23.859375 L 95.671875 23.859375 L 95.671875 25.1875 L 101.875 25.1875 C 103.265625 25.1875 103.898438 24.546875 103.898438 23.164062 C 103.898438 21.863281 103.265625 21.128906 101.875 21.128906 L 97.542969 21.128906 C 97.457031 21.128906 97.378906 21.0625 97.378906 20.964844 L 97.378906 19.878906 C 97.378906 19.792969 97.457031 19.714844 97.542969 19.714844 Z M 103.5625 19.714844 "/>
</g>
</svg>
