<svg width="192" height="40" viewBox="0 0 192 40" fill="none" xmlns="http://www.w3.org/2000/svg">
<path d="M28.7201 22.2481C31.1727 22.2481 33.161 20.259 33.161 17.8052C33.161 15.3515 31.1727 13.3623 28.7201 13.3623C26.2675 13.3623 24.2792 15.3515 24.2792 17.8052C24.2792 20.259 26.2675 22.2481 28.7201 22.2481Z" fill="white"/>
<path d="M33.7885 5.51993C25.7868 -2.10232 13.1324 -1.79253 5.51364 6.21286C4.69881 7.07699 3.94916 8.00633 3.29729 9.00089L3.2484 9.07426C3.02025 9.41665 2.80839 9.7672 2.60468 10.1259L2.56394 10.2074C2.36838 10.558 2.18097 10.9085 2.00985 11.2672L1.96911 11.3569C1.80614 11.7074 1.64317 12.0579 1.4965 12.4166C1.48835 12.4492 1.47206 12.4819 1.45576 12.5063C1.31724 12.8569 1.18686 13.2074 1.06464 13.5579C1.05649 13.5905 1.04019 13.6232 1.03205 13.6558C0.917969 14.0063 0.81204 14.3568 0.71426 14.7074L0.689815 14.8134C0.600183 15.1639 0.510551 15.5063 0.437216 15.8568C0.429067 15.8976 0.420919 15.9302 0.41277 15.971C0.339435 16.3215 0.282397 16.6721 0.225358 17.0226C0.21721 17.0634 0.209061 17.1041 0.209061 17.1449C0.160171 17.4954 0.119429 17.846 0.0868359 18.1965C0.0868359 18.2373 0.0786875 18.2862 0.0786875 18.3269C0.0460941 18.6856 0.0297974 19.0362 0.0135006 19.3949C0.0135006 19.4438 0.0135007 19.4845 0.00535229 19.5335C-0.00279608 19.9085 -0.00279608 20.2916 0.0135006 20.6666C0.0135006 20.7155 0.0135007 20.7644 0.021649 20.8215C0.0379457 21.1802 0.0623908 21.5307 0.0949843 21.8813L0.111281 22.0443C0.152023 22.4275 0.200913 22.8106 0.2661 23.2019C0.274248 23.259 0.282397 23.3242 0.290545 23.3813C0.355732 23.7889 0.437215 24.1883 0.534996 24.5878C0.551293 24.653 0.567589 24.7182 0.583886 24.7834C0.689815 25.2155 0.81204 25.6394 0.942414 26.0715C0.966859 26.1448 0.991304 26.2182 1.01575 26.2916C1.17057 26.7562 1.34168 27.2209 1.5291 27.6774C1.56169 27.759 1.60243 27.8405 1.63502 27.922C1.85503 28.4356 2.09948 28.941 2.36023 29.4301C2.40912 29.5198 2.45801 29.6176 2.51505 29.7073C2.82469 30.2617 3.15877 30.7997 3.5173 31.3214C3.58248 31.4193 3.65582 31.5171 3.72101 31.6149C4.12028 32.1774 4.55214 32.7155 5.00845 33.229C5.09808 33.3269 5.18771 33.4328 5.27734 33.5307C5.57883 33.8568 5.88847 34.1747 6.2144 34.4845C6.467 34.729 6.72775 34.9573 6.9885 35.1856C7.11887 35.2997 7.24925 35.4057 7.37962 35.5116C8.10482 36.1068 8.87077 36.6448 9.66931 37.1258C9.86487 37.2399 10.0604 37.354 10.256 37.46C11.2664 38.0225 12.3175 38.4953 13.4094 38.8785C13.6946 38.9763 13.9798 39.066 14.265 39.1556C19.8059 40.8105 25.7868 39.9953 30.6758 36.9138C30.9121 36.7671 31.1402 36.6122 31.3684 36.4573C31.5151 36.3595 31.6536 36.2535 31.7921 36.1557C31.9714 36.0252 32.1588 35.8866 32.3381 35.7399C32.4032 35.691 32.4684 35.6339 32.5336 35.585L32.6558 35.4872L32.7373 35.422L32.8921 35.2915L32.9736 35.2263L33.0551 35.153L33.1121 35.104L33.2018 35.0225C33.2425 34.9899 33.2833 34.9491 33.324 34.9165L33.4136 34.835H33.4218L33.4381 34.8269L33.5114 34.7535L33.6173 34.6557C33.6499 34.6231 33.6907 34.5905 33.7233 34.5578L33.7477 34.5334C33.8048 34.4763 33.8699 34.4193 33.927 34.3622L33.9677 34.3214L33.9922 34.297L34.0737 34.2155L34.09 34.1992L34.147 34.1421L34.1633 34.1258L34.1714 34.1176L34.204 34.085L34.2122 34.0769L34.2203 34.0687L34.2692 34.0198L34.2855 34.0035L34.2937 33.9953L34.3589 33.9301L34.367 33.922L34.3833 33.9057L34.3996 33.8894C34.4322 33.8568 34.4566 33.8323 34.4892 33.7997L34.5137 33.7752C34.5544 33.7345 34.587 33.6937 34.6196 33.6611C42.0998 25.6476 41.7413 13.0851 33.7885 5.51993ZM3.50915 9.13133C9.30263 10.4112 11.6983 15.4248 14.2079 20.6748C15.1532 22.6557 16.1147 24.6693 17.288 26.5198C16.2369 24.9302 15.3324 23.2101 14.4361 21.5226C12.3012 17.4791 10.2804 13.6558 6.55664 11.5444C5.40772 10.8922 4.16102 10.4275 2.86543 10.183C3.06914 9.82426 3.28099 9.47372 3.50915 9.13133ZM32.4358 35.3731H32.4195L32.4521 35.3649L32.4358 35.3731ZM31.9306 35.2671C32.0284 35.2426 32.1262 35.2182 32.224 35.1856L32.3218 35.2019L32.0366 35.2915L31.9306 35.2671ZM31.4417 35.153L31.7269 35.0877L31.8247 35.104C31.7351 35.1285 31.6454 35.153 31.5477 35.1774L31.4417 35.153ZM30.9365 35.0307L31.2136 34.9736L31.3032 34.9899L31.0343 35.047L30.9365 35.0307ZM30.4395 34.9084L30.7084 34.8676L30.7899 34.8839C30.7084 34.9002 30.6187 34.9165 30.5373 34.9328L30.4395 34.9084ZM29.9343 34.778L30.1869 34.7535L30.2602 34.7698L30.0158 34.8024L29.9343 34.778ZM29.4209 34.6394L29.6654 34.6231L29.7224 34.6394L29.4943 34.6638L29.4209 34.6394ZM28.9157 34.5008H29.1439L29.1846 34.5089L28.9728 34.5171L28.9157 34.5008ZM28.3942 34.3459H28.5898H28.6061H28.4268H28.3942ZM32.7292 34.8432L32.4847 34.9165L32.4358 34.9084L32.6966 34.8432H32.7292ZM32.004 35.0551L31.9225 35.0388L32.2158 34.9655L32.281 34.9736L32.004 35.0551ZM31.4336 34.941L31.7188 34.8839L31.7758 34.8921L31.5069 34.9573L31.4336 34.941ZM30.9447 34.835L31.2217 34.7861L31.2706 34.7943L31.0099 34.8432L30.9447 34.835ZM30.4476 34.7209L30.7084 34.6883L30.741 34.6964L30.5047 34.7372L30.4476 34.7209ZM29.9424 34.6068L30.1869 34.5905H30.195L29.975 34.6149L29.9424 34.6068ZM29.4372 34.4845H29.535H29.4535H29.4372ZM32.224 34.778L31.9877 34.835L31.9469 34.8269C32.0284 34.8106 32.1099 34.7943 32.1914 34.7698L32.224 34.778ZM31.4743 34.7453L31.7025 34.7046H31.7106L31.4988 34.7453H31.4743ZM30.9936 34.6557L31.0425 34.6475L30.9936 34.6557ZM25.5016 33.4328L25.6971 33.5144L25.6157 33.4981C25.4771 33.4655 25.3386 33.4328 25.2001 33.4002L25.5016 33.4328ZM24.7764 33.1801C24.8416 33.1883 24.9067 33.2046 24.9719 33.2127L25.1023 33.2698C24.8008 33.229 24.4993 33.1801 24.2141 33.1149C24.0023 33.0415 23.7904 32.9682 23.5867 32.8948C23.9778 33.0089 24.369 33.1068 24.7764 33.1801ZM24.1164 33.2127C24.2386 33.2535 24.3527 33.2943 24.4749 33.3269C24.8416 33.4328 25.2082 33.5307 25.5912 33.6122C25.7705 33.653 25.9497 33.6856 26.1209 33.7182L26.0231 33.7019C25.2327 33.5714 24.4586 33.3676 23.7089 33.1068C23.8475 33.1475 23.9778 33.1801 24.1164 33.2127ZM32.4929 35.153L32.4114 35.1366L32.7129 35.047L32.7862 35.0551L32.4929 35.153ZM32.9573 34.778H32.941L33.1529 34.7209L32.9573 34.778ZM33.3892 34.028C33.0796 34.0524 32.7618 34.0769 32.4521 34.1013C32.1343 34.1176 31.8166 34.1258 31.5069 34.1339C31.1565 34.1339 30.8062 34.1258 30.4558 34.1176C29.7387 34.0769 29.0298 34.0117 28.3454 33.9383C27.7668 33.8242 27.1964 33.6937 26.6505 33.5551C27.1964 33.604 27.7505 33.6448 28.3128 33.6693C29.9913 33.8323 31.784 33.9383 33.6255 34.0035L33.3892 34.028ZM2.81654 10.2563C4.11213 10.5009 5.36697 10.9656 6.51589 11.6177C10.2153 13.721 12.2279 17.528 14.3628 21.5633C15.5524 23.8052 16.7584 26.0959 18.2984 28.085C16.8888 26.3242 15.7235 24.3351 14.5746 22.3786C12.4235 18.7019 10.1908 14.8949 6.41811 12.7998C5.12252 12.0824 3.71286 11.577 2.2543 11.3079C2.43356 10.9574 2.62098 10.5987 2.81654 10.2563ZM2.22171 11.3976C3.68026 11.6585 5.08178 12.1639 6.37737 12.8813C10.1256 14.9683 12.3501 18.759 14.4931 22.4193C15.911 24.8405 17.3614 27.3024 19.2599 29.3323C17.508 27.5225 16.0902 25.3541 14.7131 23.2264C12.4479 19.7373 10.1093 16.134 6.28774 14.0634C4.86992 13.2889 3.33803 12.7509 1.7491 12.4574C1.89577 12.0987 2.05059 11.7482 2.22171 11.3976ZM1.52095 13.0281C1.57799 12.865 1.64317 12.702 1.70836 12.5471C3.29729 12.8406 4.82103 13.3786 6.23885 14.1449C10.036 16.1992 12.3664 19.7943 14.6235 23.2753C16.4487 26.0878 18.3229 28.9736 20.9792 31.0117C18.5429 29.2019 16.7176 26.6747 14.8272 24.0497C12.456 20.7644 10.0034 17.365 6.14922 15.327C4.62547 14.5199 2.9958 13.9411 1.30909 13.6069C1.38243 13.4112 1.44761 13.2155 1.52095 13.0281ZM1.2765 13.7047C2.96321 14.0308 4.58473 14.6096 6.10033 15.4166C9.93006 17.4465 12.3746 20.8296 14.7376 24.1068C17.4265 27.8323 19.9688 31.3541 24.3527 32.9519C24.4016 32.9682 24.4586 32.9845 24.5075 33.0089C23.383 32.7725 22.2993 32.3486 21.3052 31.7617L21.2074 31.7046L21.0933 31.6312C20.9955 31.566 20.8896 31.5089 20.7918 31.4437H20.7837C20.7103 31.3948 20.637 31.3459 20.5637 31.297C18.2495 29.7073 16.4487 27.3351 14.5828 24.8813C12.2116 21.7508 9.75894 18.5226 6.0107 16.5824C4.41362 15.7509 2.71061 15.1313 0.950562 14.7563C1.05649 14.4058 1.16242 14.0552 1.2765 13.7047ZM0.926117 14.8623C2.67802 15.2373 4.37287 15.8487 5.9618 16.6802C9.68561 18.6041 12.1301 21.8242 14.4931 24.9465C15.7643 26.6258 17.011 28.2644 18.4044 29.6421C17.7688 29.0878 17.1414 28.509 16.5221 27.9057C15.8865 27.1965 15.2591 26.4465 14.6317 25.6965C12.1709 22.7617 9.62857 19.7291 5.88032 17.846C4.2262 16.99 2.48245 16.346 0.673518 15.9139C0.746853 15.5634 0.836485 15.2128 0.926117 14.8623ZM22.8452 32.7073C20.9385 32.0062 19.3577 30.7997 17.8829 29.3405C19.3985 30.6937 20.9955 31.8839 22.8452 32.7073ZM0.649073 16.028C2.38467 16.4356 4.06324 17.0552 5.82328 17.9438C9.54708 19.8188 12.0812 22.8432 14.542 25.7698C14.8435 26.1285 15.1369 26.4791 15.4384 26.8296L14.9983 26.3894C12.3501 23.74 9.62042 21.009 5.7418 19.1014C4.38102 18.4329 2.62098 17.6422 0.461661 17.0797C0.518699 16.7291 0.575738 16.3786 0.649073 16.028ZM0.445364 17.2101C2.58838 17.7726 4.33213 18.547 5.69291 19.2155C9.54708 21.115 12.2768 23.8459 14.9169 26.4791C15.4465 27.009 15.9761 27.5389 16.4976 28.0443C17.2554 28.9003 18.0621 29.7073 18.9258 30.4655C17.5651 29.4546 16.2695 28.297 14.9494 27.1149C12.2442 24.7019 9.4493 22.1992 5.61143 20.3568C4.11213 19.6313 2.35208 18.8568 0.331287 18.2617C0.355732 17.9112 0.396474 17.5606 0.445364 17.2101ZM0.31499 18.4003C2.31949 18.9873 4.06324 19.7617 5.55439 20.4791C9.36782 22.3133 12.1627 24.8079 14.8598 27.2128C17.7769 29.8215 20.5555 32.2997 24.2304 33.4165C24.8171 33.5959 25.4119 33.7345 26.0068 33.8323C26.3246 33.8894 26.6424 33.9301 26.9683 33.9709H26.9764C26.7972 33.9546 26.6179 33.9301 26.4386 33.9138C21.7859 33.3513 18.551 30.7834 14.8028 27.8079C12.0649 25.6313 9.2293 23.3813 5.4729 21.6204C4.09583 20.9764 2.33578 20.1449 0.257952 19.4682C0.2661 19.1177 0.282397 18.759 0.31499 18.4003ZM0.257952 20.4954C0.249803 20.2019 0.249803 19.9085 0.257952 19.615C2.31134 20.2916 4.05509 21.1068 5.42401 21.7508C9.16411 23.5035 11.9916 25.7454 14.7294 27.922C17.7688 30.335 20.474 32.4872 23.8801 33.5225C24.7112 33.7752 25.5668 33.9546 26.4305 34.0606C26.7972 34.1013 27.1638 34.1421 27.5387 34.1747L27.5794 34.1828C27.335 34.1747 27.0905 34.1584 26.8542 34.1421C22.063 33.7834 18.5755 31.3214 14.5339 28.4763C11.796 26.5524 8.96855 24.5552 5.34253 22.9003C3.98175 22.2807 2.26245 21.5226 0.2661 20.7807C0.2661 20.6748 0.257952 20.5851 0.257952 20.4954ZM0.274248 20.9112C2.238 21.6449 3.94101 22.3949 5.28549 23.0063C8.89522 24.6611 11.7227 26.6503 14.4524 28.566C17.4999 30.7182 20.2377 32.6421 23.4645 33.6285C24.5645 33.9627 25.6971 34.1747 26.8379 34.2644C27.2535 34.297 27.669 34.3133 28.0928 34.3296L28.1579 34.3459C27.8565 34.3459 27.555 34.3377 27.2616 34.3296C22.283 34.1747 18.4777 31.8024 14.0694 29.047C11.519 27.4573 8.63447 25.6557 5.21216 24.1313C4.77214 23.9356 4.32398 23.7237 3.84323 23.5035C2.7758 23.0144 1.61873 22.4764 0.355732 21.9709C0.31499 21.6286 0.290545 21.2699 0.274248 20.9112ZM0.36388 22.1503C1.59428 22.6476 2.72691 23.1693 3.7699 23.6503C4.25065 23.8704 4.70696 24.0823 5.13882 24.278C8.54484 25.8024 11.3071 27.5226 13.9798 29.1856C17.0436 31.0932 19.814 32.8214 22.9023 33.7589C24.3119 34.191 25.7705 34.4356 27.2453 34.4845C27.7016 34.5008 28.1661 34.5008 28.6306 34.5008L28.712 34.5252C28.3617 34.5415 28.0113 34.5497 27.6609 34.5578C22.4133 34.6149 18.2006 32.2834 13.3198 29.5932C10.916 28.2644 8.18631 26.7563 5.07363 25.403C4.40547 25.1095 3.68841 24.7753 2.93876 24.4247C2.18911 24.0742 1.37428 23.691 0.526847 23.316C0.461661 22.9329 0.41277 22.5416 0.36388 22.1503ZM0.559441 23.5035C1.37428 23.8622 2.14022 24.2291 2.86543 24.5633C3.62323 24.922 4.33213 25.2563 5.00845 25.5497C8.11297 26.903 10.7204 28.3378 13.2464 29.7318C16.3265 31.4274 19.1377 32.9845 22.12 33.8894C23.9126 34.4519 25.7868 34.729 27.6609 34.7127C28.1661 34.7046 28.6631 34.6883 29.1765 34.6638L29.2661 34.6883C28.8669 34.7209 28.4676 34.7535 28.0683 34.7698C22.4378 35.0714 17.8829 32.8459 12.1301 30.0253C9.88932 28.9247 7.58333 27.7916 4.93511 26.6747C4.03879 26.2916 3.05284 25.8106 2.00985 25.3052C1.62688 25.1177 1.22761 24.9302 0.820189 24.7345C0.71426 24.3188 0.632776 23.9112 0.559441 23.5035ZM0.869079 24.9302C1.23576 25.1095 1.59428 25.2807 1.93651 25.4438C2.9795 25.9492 3.96546 26.4302 4.86992 26.8133C7.50999 27.9302 9.82413 29.0633 12.0568 30.1638C15.2754 31.7454 18.1192 33.1394 20.9874 34.0035C23.2689 34.6964 25.5586 35.0633 28.0765 34.9247C28.6224 34.8921 29.1602 34.8513 29.7061 34.8024L29.8039 34.8269C29.3639 34.8839 28.9157 34.9328 28.4757 34.9818C22.2748 35.5687 16.9539 33.229 10.2071 30.2617C8.49595 29.5117 6.7196 28.7291 4.79659 27.9302C3.72101 27.4818 2.51505 26.8785 1.25205 26.2345C1.11353 25.8024 0.983156 25.3704 0.869079 24.9302ZM1.32539 26.4546C2.53949 27.0742 3.68841 27.6448 4.7314 28.0769C6.65442 28.8758 8.42261 29.6503 10.1338 30.4084C13.4583 31.8758 16.4406 33.1883 19.3577 34.0687C22.3726 34.9818 25.3142 35.4464 28.4839 35.1448C29.0624 35.0877 29.6409 35.0225 30.2195 34.941L30.3336 34.9736C29.8528 35.0551 29.3721 35.1366 28.8832 35.2019C21.8104 36.1638 15.585 33.6367 6.96405 30.1312C6.2144 29.8296 5.44846 29.5198 4.66622 29.1937C3.80249 28.8432 2.86543 28.3867 1.87948 27.8731C1.67577 27.4003 1.48835 26.9274 1.32539 26.4546ZM1.9854 28.1177C2.90617 28.5905 3.78619 29.0225 4.60103 29.3486C5.39142 29.6666 6.15737 29.9763 6.89887 30.278C10.6716 31.8106 13.9879 33.1638 17.1169 34.1095C21.1585 35.3405 24.8986 35.9029 28.9076 35.3568C29.5269 35.2752 30.138 35.1774 30.741 35.0633L30.8551 35.0959C30.3336 35.21 29.8121 35.316 29.2824 35.4057C21.5007 36.7834 14.1102 34.2236 4.51955 30.4492C3.94916 30.2209 3.36248 29.9519 2.7432 29.6421C2.47431 29.1448 2.22171 28.6394 1.9854 28.1177ZM2.90617 29.9193C3.44396 30.1801 3.95731 30.4166 4.46251 30.6122C7.95001 31.9818 11.1523 33.1964 14.1835 34.1176C19.5125 35.7399 24.3364 36.4654 29.3232 35.5769C29.975 35.4627 30.6188 35.3323 31.2625 35.1856L31.3847 35.2182C30.8306 35.3649 30.2765 35.4953 29.7061 35.6176C21.7126 37.354 13.8087 35.3078 4.39732 31.7046C4.25065 31.6475 4.10398 31.5905 3.95731 31.5252C3.57434 31.0117 3.2321 30.4736 2.90617 29.9193ZM4.15287 31.8106C4.20991 31.835 4.26695 31.8595 4.32398 31.8758C6.74405 32.8051 9.05818 33.6285 11.3071 34.3051C17.834 36.2861 23.7497 37.085 29.7387 35.7888C30.4232 35.6421 31.0995 35.4709 31.7677 35.2997L31.8899 35.3241C31.3032 35.5035 30.7084 35.6665 30.1136 35.8214C22.9674 37.6557 15.3324 36.9138 5.5055 33.4084C5.02474 32.9111 4.57658 32.3731 4.15287 31.8106ZM6.38552 34.3214C6.18181 34.1258 5.9781 33.922 5.78254 33.7263C6.86627 34.1095 7.91741 34.4519 8.95225 34.7698C17.1658 37.2644 23.8475 37.6394 30.1543 36.0171C30.8632 35.8377 31.5721 35.6339 32.2647 35.4138L32.3544 35.4301L32.3055 35.4709C31.7188 35.6747 31.1158 35.8622 30.5128 36.0415C23.4237 38.1366 16.0658 37.941 7.59148 35.3812C7.17591 35.047 6.77664 34.6964 6.38552 34.3214ZM27.6609 38.2345C23.8149 39.8404 19.5614 40.1991 15.5035 39.2535C16.1473 39.2861 16.791 39.3024 17.4265 39.3024C21.3704 39.2779 25.2979 38.6584 29.0624 37.4763C29.2335 37.4192 29.3965 37.3703 29.5676 37.3133C28.9402 37.6475 28.3128 37.9573 27.6609 38.2345ZM14.5176 39.0008C13.3361 38.6584 12.1953 38.21 11.1034 37.6557C18.0132 39.0008 24.5645 38.6013 30.961 36.4654C30.7736 36.5959 30.578 36.7182 30.3824 36.8404C25.6971 38.4709 20.417 39.441 14.5176 39.0008ZM31.564 36.0415C31.3521 36.1149 31.1402 36.1883 30.9202 36.2616C24.3445 38.4627 17.5977 38.8214 10.4597 37.3214C9.60412 36.8486 8.78929 36.3106 8.01519 35.7236C16.3265 38.1611 23.5786 38.316 30.5699 36.2453C30.9936 36.1231 31.4173 35.9845 31.8329 35.8459C31.7432 35.9029 31.6536 35.9682 31.564 36.0415ZM34.0574 33.9057C32.9899 33.8731 31.9388 33.8242 30.9202 33.7671C31.9877 33.7915 33.0714 33.7915 34.1796 33.7834L34.0574 33.9057ZM34.3181 33.6367L34.2937 33.6611C32.1751 33.6774 30.1054 33.653 28.1742 33.5388C27.2046 33.441 26.2757 33.3187 25.3875 33.172C25.2245 33.1149 25.0616 33.066 24.9067 33.0089C24.4504 32.8296 24.0186 32.6502 23.603 32.4464C23.4563 32.3731 23.3097 32.2997 23.1711 32.2263C22.5845 31.9165 22.0304 31.5579 21.5007 31.1584C18.0784 28.5497 16.1554 24.5389 14.2976 20.6421C11.7716 15.3759 9.37597 10.3541 3.56619 9.05796C4.19361 8.10416 4.91067 7.20742 5.69291 6.38406C13.1731 -1.55612 25.6808 -1.93112 33.6173 5.56069C41.5539 13.0525 41.9287 25.5579 34.4403 33.4981C34.3996 33.5388 34.3589 33.5877 34.3181 33.6367Z" fill="white"/>
<path d="M54.7474 26.9655C54.0752 26.9655 53.5491 26.8192 53.1399 26.5268C52.7307 26.2344 52.4384 25.825 52.263 25.2695C52.1169 24.7139 52 24.0706 52 23.3103V19.7136C52 18.9241 52.0877 18.2516 52.2338 17.696C52.4092 17.1404 52.7015 16.731 53.1107 16.4386C53.5198 16.1462 54.1044 16 54.8643 16C55.5365 16 56.0626 16.117 56.4718 16.3509C56.881 16.5848 57.1733 16.9065 57.3779 17.3743C57.5533 17.8422 57.6409 18.427 57.6409 19.1288V19.5382H56.238V19.2165C56.238 18.7487 56.2088 18.3685 56.1503 18.0761C56.0919 17.7837 55.975 17.5498 55.7704 17.4036C55.595 17.2574 55.2735 17.1989 54.8643 17.1989C54.4259 17.1989 54.1044 17.2866 53.8998 17.4913C53.6952 17.696 53.5783 17.9592 53.5198 18.3101C53.4614 18.661 53.4614 19.0411 53.4614 19.4797V23.4565C53.4614 23.9536 53.4906 24.3922 53.5783 24.7431C53.666 25.094 53.7829 25.3572 54.0167 25.5034C54.2213 25.6788 54.5136 25.7666 54.9228 25.7666C55.3027 25.7666 55.6242 25.6788 55.8288 25.5034C56.0334 25.3279 56.1796 25.0355 56.2672 24.6846C56.3549 24.3337 56.3841 23.8659 56.3841 23.3395V22.6085H55.0104V21.5558H57.7286V26.8192H56.7933L56.6472 25.5911C56.5011 26.0005 56.2965 26.3221 55.975 26.5561C55.7119 26.8192 55.3027 26.9655 54.7474 26.9655Z" fill="white"/>
<path d="M63.6613 26.8186V16.1163H67.8116V17.2275H65.1519V20.7657H67.3147V21.8184H65.1519V25.7367H67.8408V26.8186H63.6613Z" fill="white"/>
<path d="M73.4526 26.8186V16.1163H74.4755L77.5152 23.2219V16.1163H78.772V26.8186H77.8075L74.7386 19.5083V26.8186H73.4526Z" fill="white"/>
<path d="M84.8228 26.8186V16.1163H88.9731V17.2275H86.3134V20.7657H88.4762V21.8184H86.3134V25.7367H89.0023V26.8186H84.8228Z" fill="white"/>
<path d="M97.0984 26.9368C96.4847 26.9368 95.9586 26.7906 95.5494 26.5274C95.1402 26.2642 94.8187 25.8841 94.6141 25.4162C94.4095 24.9484 94.2926 24.3928 94.2341 23.7787L95.5494 23.4278C95.5786 23.808 95.6371 24.1589 95.7247 24.539C95.8124 24.8899 95.9586 25.1823 96.1924 25.4162C96.397 25.6502 96.6893 25.7671 97.0692 25.7671C97.4492 25.7671 97.7414 25.6501 97.946 25.4455C98.1506 25.2408 98.2383 24.9191 98.2383 24.5097C98.2383 24.0126 98.1214 23.6325 97.9168 23.3401C97.683 23.0477 97.4199 22.7553 97.0984 22.4336L95.2863 20.8546C94.9356 20.5329 94.6725 20.2113 94.4972 19.8311C94.3218 19.451 94.2341 19.0124 94.2341 18.4861C94.2341 17.6965 94.468 17.0825 94.9064 16.6731C95.3448 16.2345 95.9586 16.0298 96.7477 16.0298C97.1569 16.0298 97.5369 16.0883 97.8584 16.2052C98.1799 16.3222 98.4429 16.4977 98.6767 16.7023C98.8813 16.9363 99.0567 17.2287 99.2028 17.5796C99.3197 17.9305 99.4074 18.3398 99.4659 18.8077L98.2091 19.1586C98.1799 18.8077 98.1214 18.4861 98.063 18.1936C97.9753 17.9012 97.8584 17.6673 97.6538 17.4918C97.4492 17.3164 97.1569 17.2287 96.8062 17.2287C96.4554 17.2287 96.1339 17.3164 95.9293 17.5211C95.7247 17.7258 95.6078 18.0182 95.6078 18.3983C95.6078 18.72 95.6663 18.9832 95.7832 19.2171C95.9001 19.451 96.0755 19.6557 96.3093 19.8604L98.1214 21.4394C98.5306 21.7903 98.8813 22.1997 99.2028 22.6968C99.5243 23.1939 99.6705 23.7787 99.6705 24.422C99.6705 24.9484 99.5536 25.4162 99.349 25.7964C99.1151 26.1765 98.8229 26.4689 98.4429 26.6736C98.0629 26.8783 97.5953 26.9368 97.0984 26.9368Z" fill="white"/>
<path d="M105.311 26.8186V16.1163H106.772V26.8186H105.311Z" fill="white"/>
<path d="M115.424 26.9368C114.81 26.9368 114.284 26.7906 113.875 26.5274C113.466 26.2642 113.144 25.8841 112.939 25.4162C112.735 24.9484 112.618 24.3928 112.559 23.7787L113.875 23.4278C113.904 23.808 113.962 24.1589 114.05 24.539C114.138 24.8899 114.284 25.1823 114.518 25.4162C114.722 25.6502 115.015 25.7671 115.395 25.7671C115.774 25.7671 116.067 25.6501 116.271 25.4455C116.476 25.2408 116.564 24.9191 116.564 24.5097C116.564 24.0126 116.447 23.6325 116.242 23.3401C116.008 23.0477 115.745 22.7553 115.424 22.4336L113.612 20.8546C113.261 20.5329 112.998 20.2113 112.822 19.8311C112.647 19.451 112.559 19.0124 112.559 18.4861C112.559 17.6965 112.793 17.0825 113.232 16.6731C113.67 16.2345 114.284 16.0298 115.073 16.0298C115.482 16.0298 115.862 16.0883 116.184 16.2052C116.505 16.3222 116.768 16.4977 117.002 16.7023C117.207 16.9363 117.382 17.2287 117.528 17.5796C117.645 17.9305 117.733 18.3398 117.791 18.8077L116.534 19.1586C116.505 18.8077 116.447 18.4861 116.388 18.1936C116.301 17.9012 116.184 17.6673 115.979 17.4918C115.774 17.3164 115.482 17.2287 115.131 17.2287C114.781 17.2287 114.459 17.3164 114.255 17.5211C114.05 17.7258 113.933 18.0182 113.933 18.3983C113.933 18.72 113.992 18.9832 114.109 19.2171C114.225 19.451 114.401 19.6557 114.635 19.8604L116.447 21.4394C116.856 21.7903 117.207 22.1997 117.528 22.6968C117.85 23.1939 117.996 23.7787 117.996 24.422C117.996 24.9484 117.879 25.4162 117.674 25.7964C117.44 26.1765 117.148 26.4689 116.768 26.6736C116.388 26.8783 115.921 26.9368 115.424 26.9368Z" fill="white"/>
<path d="M133.487 26.9368C132.873 26.9368 132.347 26.7906 131.938 26.5274C131.529 26.2642 131.207 25.8841 131.003 25.4162C130.798 24.9484 130.681 24.3928 130.623 23.7787L131.938 23.4278C131.967 23.808 132.025 24.1589 132.113 24.539C132.201 24.8899 132.347 25.1823 132.581 25.4162C132.785 25.6502 133.078 25.7671 133.458 25.7671C133.838 25.7671 134.13 25.6501 134.334 25.4455C134.539 25.2408 134.627 24.9191 134.627 24.5097C134.627 24.0126 134.51 23.6325 134.305 23.3401C134.071 23.0477 133.808 22.7553 133.487 22.4336L131.675 20.8546C131.324 20.5329 131.061 20.2113 130.886 19.8311C130.71 19.451 130.623 19.0124 130.623 18.4861C130.623 17.6965 130.856 17.0825 131.295 16.6731C131.733 16.2345 132.347 16.0298 133.136 16.0298C133.545 16.0298 133.925 16.0883 134.247 16.2052C134.568 16.3222 134.831 16.4977 135.065 16.7023C135.27 16.9363 135.445 17.2287 135.591 17.5796C135.737 17.9305 135.796 18.3398 135.854 18.8077L134.598 19.1586C134.568 18.8077 134.51 18.4861 134.451 18.1936C134.364 17.9012 134.247 17.6673 134.042 17.4918C133.838 17.3164 133.545 17.2287 133.195 17.2287C132.844 17.2287 132.522 17.3164 132.318 17.5211C132.113 17.7258 131.996 18.0182 131.996 18.3983C131.996 18.72 132.055 18.9832 132.172 19.2171C132.289 19.451 132.464 19.6557 132.698 19.8604L134.51 21.4394C134.919 21.7903 135.27 22.1997 135.591 22.6968C135.913 23.1939 136.059 23.7787 136.059 24.422C136.059 24.9484 135.942 25.4162 135.737 25.7964C135.504 26.1765 135.211 26.4689 134.831 26.6736C134.451 26.8783 133.984 26.9368 133.487 26.9368Z" fill="white"/>
<path d="M141.583 26.8186V16.1163H143.073V20.7364H145.821V16.1163H147.311V26.8186H145.821V21.8184H143.073V26.8186H141.583Z" fill="white"/>
<path d="M152.805 26.8186L155.085 16.1163H156.517L158.797 26.8186H157.394L156.897 24.1284H154.705L154.179 26.8186H152.805ZM154.939 23.0465H156.722L155.816 18.2217L154.939 23.0465Z" fill="white"/>
<path d="M164.292 26.8186V16.1163H166.455C167.157 16.1163 167.77 16.2041 168.238 16.4087C168.706 16.5842 169.056 16.9058 169.29 17.3152C169.524 17.7246 169.641 18.2802 169.641 18.9527C169.641 19.3621 169.582 19.7422 169.495 20.0931C169.407 20.444 169.261 20.7072 169.086 20.9411C168.881 21.1751 168.647 21.3505 168.326 21.4382L169.787 26.8186H168.355L166.952 21.7891H165.783V26.8186H164.292ZM165.783 20.7364H166.338C166.747 20.7364 167.098 20.678 167.361 20.5902C167.624 20.4733 167.829 20.2978 167.946 20.0346C168.063 19.7715 168.121 19.4206 168.121 18.9527C168.121 18.3387 168.004 17.8708 167.77 17.6076C167.537 17.3152 167.098 17.1982 166.397 17.1982H165.724V20.7364H165.783Z" fill="white"/>
<path d="M175.545 26.8186V16.1163H177.883C178.673 16.1163 179.316 16.2333 179.754 16.4672C180.222 16.7011 180.543 17.0813 180.748 17.5491C180.952 18.0462 181.04 18.6311 181.04 19.3621V23.3097C181.04 24.0699 180.952 24.7132 180.748 25.2396C180.543 25.7659 180.222 26.1461 179.783 26.4092C179.345 26.6724 178.731 26.8186 178 26.8186H175.545ZM177.036 25.7367H177.883C178.439 25.7367 178.819 25.6197 179.052 25.415C179.286 25.2103 179.432 24.8887 179.462 24.4793C179.52 24.0699 179.52 23.5728 179.52 23.0173V19.5375C179.52 18.982 179.491 18.5433 179.403 18.1925C179.345 17.8416 179.169 17.6076 178.936 17.4322C178.702 17.286 178.322 17.1982 177.825 17.1982H177.007V25.7367H177.036Z" fill="white"/>
<path d="M189.428 26.9368C188.814 26.9368 188.288 26.7906 187.879 26.5274C187.47 26.2642 187.148 25.8841 186.944 25.4162C186.739 24.9484 186.622 24.3928 186.564 23.7787L187.879 23.4278C187.908 23.808 187.967 24.1589 188.054 24.539C188.142 24.8899 188.288 25.1823 188.522 25.4162C188.727 25.6502 189.019 25.7671 189.399 25.7671C189.779 25.7671 190.071 25.6501 190.276 25.4455C190.48 25.2408 190.568 24.9191 190.568 24.5097C190.568 24.0126 190.451 23.6325 190.246 23.3401C190.013 23.0477 189.75 22.7553 189.428 22.4336L187.616 20.8546C187.265 20.5329 187.002 20.2113 186.827 19.8311C186.651 19.451 186.564 19.0124 186.564 18.4861C186.564 17.6965 186.798 17.0825 187.236 16.6731C187.674 16.2345 188.288 16.0298 189.077 16.0298C189.486 16.0298 189.866 16.0883 190.188 16.2052C190.509 16.3222 190.773 16.4977 191.006 16.7023C191.211 16.9363 191.386 17.2287 191.532 17.5796C191.679 17.9305 191.737 18.3398 191.795 18.8077L190.539 19.1586C190.509 18.8077 190.451 18.4861 190.393 18.1936C190.305 17.9012 190.188 17.6673 189.983 17.4918C189.779 17.3164 189.486 17.2287 189.136 17.2287C188.785 17.2287 188.464 17.3164 188.259 17.5211C188.054 17.7258 187.937 18.0182 187.937 18.3983C187.937 18.72 187.996 18.9832 188.113 19.2171C188.23 19.451 188.405 19.6557 188.639 19.8604L190.451 21.4394C190.86 21.7903 191.211 22.1997 191.532 22.6968C191.854 23.1939 192 23.7787 192 24.422C192 24.9484 191.883 25.4162 191.679 25.7964C191.445 26.1765 191.152 26.4689 190.773 26.6736C190.393 26.8783 189.925 26.9368 189.428 26.9368Z" fill="white"/>
</svg>
