<svg width="41" height="41" viewBox="0 0 41 41" fill="none" xmlns="http://www.w3.org/2000/svg">
<path d="M24.0612 20.0687C29.5941 20.0687 34.0947 15.5672 34.0947 10.0343C34.0947 4.50143 29.5941 0 24.0612 0C18.5283 0 14.0269 4.50143 14.0269 10.0343C14.0269 15.5672 18.5283 20.0687 24.0612 20.0687ZM22.8728 4.13621V3.86368C22.8728 3.20693 23.4044 2.67535 24.0612 2.67535C24.7171 2.67535 25.2495 3.20693 25.2495 3.86368V4.13779C26.6636 4.44122 27.7276 5.70086 27.7276 7.2045C27.7276 7.86046 27.1952 8.39284 26.5393 8.39284C25.8825 8.39284 25.3509 7.86046 25.3509 7.2045C25.3509 6.78541 25.0095 6.44396 24.5904 6.44396H23.5248C23.1058 6.44396 22.7643 6.78541 22.7643 7.2045C22.7643 7.44454 22.8792 7.6727 23.0725 7.8153L24.0612 8.54732L26.4632 10.3251C27.2523 10.9089 27.7276 11.843 27.7339 12.8253V12.8364C27.7395 13.6746 27.4186 14.4652 26.8292 15.0618C26.3919 15.5046 25.8453 15.8017 25.2495 15.9269V16.205C25.2495 16.8617 24.7171 17.3933 24.0612 17.3933C23.4044 17.3933 22.8728 16.8617 22.8728 16.205V15.9309C22.2929 15.8073 21.7598 15.5221 21.3288 15.0959C20.7323 14.5072 20.4011 13.7213 20.3963 12.8832C20.3924 12.2272 20.9208 11.6917 21.5768 11.6877H21.5847C22.2375 11.6877 22.7691 12.2153 22.773 12.8689C22.7746 13.279 23.1046 13.6247 23.5375 13.6247C24.1941 13.6207 23.9496 13.6222 24.6015 13.6184C25.0233 13.615 25.3605 13.2727 25.3573 12.8523V12.8412C25.3557 12.6035 25.2408 12.3769 25.0491 12.2351L24.0612 11.5039L21.6584 9.72615C20.863 9.13674 20.3876 8.19399 20.3876 7.2045C20.3876 5.69769 21.4548 4.43725 22.8728 4.13621Z" fill="#9F9F9F"/>
<path d="M7.80303 25.7783C7.49841 25.2502 6.82177 25.0665 6.29043 25.373L0.700644 28.5998C0.171358 28.9061 -0.0102197 29.5831 0.295342 30.1131L6.0084 40.0081C6.3142 40.5372 6.99076 40.719 7.52099 40.4134L13.1108 37.1859C13.6409 36.8802 13.8217 36.2033 13.5161 35.6733L7.80303 25.7783Z" fill="#9F9F9F"/>
<path d="M39.832 23.8032C39.2941 23.0561 38.2531 22.8874 37.5069 23.4253C35.2427 25.0565 30.8949 28.189 30.5495 28.4385C30.3903 28.574 30.2231 28.6968 30.0488 28.8053C29.3652 29.2355 28.5721 29.4652 27.7443 29.4652H22.0521C21.3962 29.4652 20.8638 28.9337 20.8638 28.2769C20.8638 27.6194 21.3969 27.0886 22.0521 27.0886H28.1396C29.034 27.0886 29.7502 26.3439 29.7129 25.4479C29.6781 24.5978 28.9524 23.9387 28.1016 23.9387H23.4678C23.1541 23.6067 22.8103 23.3025 22.4419 23.0308C21.1751 22.0967 19.6097 21.5446 17.9151 21.5446C14.9023 21.5446 11.9045 23.4427 10.6615 25.9763L15.5226 34.3953H24.6411C26.4315 34.3953 28.195 33.9373 29.747 33.0445C30.2849 32.7355 30.8609 32.364 31.4851 31.9156C34.1011 30.0364 39.4494 26.1323 39.4534 26.13C40.2012 25.5928 40.3707 24.5503 39.832 23.8032Z" fill="#9F9F9F"/>
</svg>
