<?xml version="1.0" encoding="UTF-8"?>
<svg xmlns="http://www.w3.org/2000/svg" xmlns:xlink="http://www.w3.org/1999/xlink" width="120px" height="18px" viewBox="0 0 122 18" version="1.1">
<g id="surface1">
<path style=" stroke:none;fill-rule:nonzero;fill:rgb(10.980392%,12.941176%,27.843137%);fill-opacity:1;" d="M 15.078125 0 L 15.078125 17.738281 L 11.84375 17.738281 L 4.140625 6.574219 L 4.011719 6.574219 L 4.011719 17.738281 L 0.265625 17.738281 L 0.265625 0 L 3.550781 0 L 11.195312 11.15625 L 11.351562 11.15625 L 11.351562 0 Z M 15.078125 0 "/>
<path style=" stroke:none;fill-rule:nonzero;fill:rgb(10.980392%,12.941176%,27.843137%);fill-opacity:1;" d="M 17.191406 17.738281 L 17.191406 0 L 28.910156 0 L 28.910156 3.09375 L 20.933594 3.09375 L 20.933594 7.320312 L 28.140625 7.320312 L 28.140625 10.410156 L 20.933594 10.410156 L 20.933594 17.738281 Z M 17.191406 17.738281 "/>
<path style=" stroke:none;fill-rule:nonzero;fill:rgb(10.980392%,12.941176%,27.843137%);fill-opacity:1;" d="M 30.753906 3.09375 L 30.753906 0 L 45.296875 0 L 45.296875 3.09375 L 39.875 3.09375 L 39.875 17.738281 L 36.175781 17.738281 L 36.175781 3.09375 Z M 30.753906 3.09375 "/>
<path style=" stroke:none;fill-rule:nonzero;fill:rgb(10.980392%,12.941176%,27.843137%);fill-opacity:1;" d="M 46.246094 17.738281 L 46.246094 4.433594 L 49.816406 4.433594 L 49.816406 6.746094 L 49.957031 6.746094 C 50.144531 6 50.574219 5.339844 51.175781 4.867188 C 51.746094 4.445312 52.4375 4.222656 53.144531 4.234375 C 53.347656 4.234375 53.542969 4.246094 53.742188 4.265625 C 53.933594 4.285156 54.121094 4.320312 54.304688 4.363281 L 54.304688 7.648438 C 54.070312 7.582031 53.828125 7.535156 53.585938 7.507812 C 53.304688 7.46875 53.027344 7.449219 52.746094 7.445312 C 52.242188 7.4375 51.746094 7.558594 51.304688 7.796875 C 50.886719 8.023438 50.539062 8.359375 50.300781 8.773438 C 50.050781 9.210938 49.925781 9.710938 49.9375 10.214844 L 49.9375 17.738281 Z M 46.246094 17.738281 "/>
<path style=" stroke:none;fill-rule:nonzero;fill:rgb(10.980392%,12.941176%,27.843137%);fill-opacity:1;" d="M 59.5 17.992188 C 58.71875 18.003906 57.949219 17.851562 57.234375 17.542969 C 56.589844 17.265625 56.046875 16.804688 55.664062 16.21875 C 55.257812 15.558594 55.058594 14.796875 55.085938 14.023438 C 55.066406 13.378906 55.203125 12.738281 55.492188 12.160156 C 55.753906 11.671875 56.132812 11.253906 56.597656 10.949219 C 57.089844 10.632812 57.628906 10.398438 58.191406 10.257812 C 58.808594 10.097656 59.441406 9.988281 60.074219 9.925781 C 60.84375 9.847656 61.464844 9.769531 61.941406 9.695312 C 62.304688 9.660156 62.652344 9.550781 62.96875 9.371094 C 63.179688 9.230469 63.300781 8.988281 63.289062 8.730469 L 63.289062 8.679688 C 63.316406 8.199219 63.128906 7.730469 62.773438 7.40625 C 62.363281 7.082031 61.84375 6.921875 61.320312 6.957031 C 60.757812 6.925781 60.203125 7.078125 59.738281 7.390625 C 59.363281 7.660156 59.089844 8.046875 58.960938 8.488281 L 55.554688 8.199219 C 55.710938 7.425781 56.0625 6.699219 56.574219 6.097656 C 57.105469 5.488281 57.78125 5.015625 58.539062 4.730469 C 59.433594 4.394531 60.382812 4.230469 61.335938 4.25 C 62.050781 4.246094 62.765625 4.335938 63.457031 4.511719 C 64.105469 4.667969 64.714844 4.941406 65.265625 5.316406 C 65.789062 5.675781 66.214844 6.152344 66.511719 6.714844 C 66.832031 7.34375 66.992188 8.046875 66.972656 8.753906 L 66.972656 17.738281 L 63.480469 17.738281 L 63.480469 15.894531 L 63.382812 15.894531 C 63.167969 16.3125 62.875 16.683594 62.519531 16.988281 C 62.140625 17.316406 61.703125 17.566406 61.230469 17.726562 C 60.671875 17.910156 60.085938 18 59.5 17.992188 Z M 60.554688 15.445312 C 61.054688 15.453125 61.546875 15.34375 61.996094 15.117188 C 62.390625 14.921875 62.726562 14.621094 62.96875 14.253906 C 63.203125 13.875 63.324219 13.4375 63.316406 12.992188 L 63.316406 11.574219 C 63.171875 11.660156 63.011719 11.730469 62.847656 11.773438 C 62.648438 11.835938 62.421875 11.890625 62.175781 11.9375 C 61.929688 11.988281 61.683594 12.03125 61.433594 12.070312 L 60.761719 12.171875 C 60.375 12.222656 59.996094 12.324219 59.636719 12.472656 C 59.34375 12.589844 59.082031 12.78125 58.882812 13.03125 C 58.703125 13.28125 58.605469 13.585938 58.617188 13.898438 C 58.589844 14.351562 58.796875 14.789062 59.164062 15.050781 C 59.574219 15.324219 60.058594 15.464844 60.554688 15.445312 Z M 60.554688 15.445312 "/>
<path style=" stroke:none;fill-rule:nonzero;fill:rgb(10.980392%,12.941176%,27.843137%);fill-opacity:1;" d="M 73.757812 17.953125 C 72.789062 17.964844 71.839844 17.695312 71.023438 17.171875 C 70.167969 16.605469 69.496094 15.800781 69.085938 14.863281 C 68.578125 13.675781 68.335938 12.394531 68.371094 11.109375 C 68.328125 9.800781 68.578125 8.496094 69.105469 7.300781 C 69.527344 6.367188 70.207031 5.574219 71.066406 5.019531 C 71.875 4.515625 72.808594 4.253906 73.757812 4.261719 C 74.402344 4.238281 75.039062 4.367188 75.625 4.636719 C 76.085938 4.863281 76.5 5.179688 76.835938 5.574219 C 77.117188 5.90625 77.351562 6.273438 77.539062 6.667969 L 77.648438 6.667969 L 77.648438 0 L 81.324219 0 L 81.324219 17.738281 L 77.691406 17.738281 L 77.691406 15.609375 L 77.539062 15.609375 C 77.347656 16.007812 77.101562 16.375 76.808594 16.703125 C 76.464844 17.089844 76.046875 17.398438 75.578125 17.613281 C 75.003906 17.859375 74.382812 17.976562 73.757812 17.953125 Z M 74.910156 15.015625 C 75.457031 15.03125 75.988281 14.855469 76.421875 14.523438 C 76.859375 14.164062 77.1875 13.6875 77.371094 13.152344 C 77.605469 12.488281 77.71875 11.785156 77.703125 11.082031 C 77.71875 10.378906 77.609375 9.683594 77.375 9.019531 C 77.195312 8.488281 76.863281 8.019531 76.425781 7.667969 C 75.988281 7.347656 75.453125 7.179688 74.910156 7.199219 C 74.359375 7.179688 73.820312 7.355469 73.382812 7.691406 C 72.945312 8.050781 72.617188 8.523438 72.4375 9.0625 C 72.214844 9.710938 72.105469 10.394531 72.117188 11.082031 C 72.105469 11.777344 72.21875 12.472656 72.445312 13.128906 C 72.625 13.667969 72.953125 14.148438 73.386719 14.515625 C 73.820312 14.855469 74.359375 15.03125 74.910156 15.015625 Z M 74.910156 15.015625 "/>
<path style=" stroke:none;fill-rule:nonzero;fill:rgb(10.980392%,12.941176%,27.843137%);fill-opacity:1;" d="M 89.898438 18 C 88.671875 18.035156 87.457031 17.746094 86.375 17.164062 C 85.398438 16.613281 84.609375 15.789062 84.105469 14.789062 C 83.550781 13.65625 83.277344 12.410156 83.308594 11.148438 C 83.28125 9.902344 83.554688 8.664062 84.105469 7.542969 C 84.605469 6.542969 85.386719 5.703125 86.347656 5.128906 C 87.382812 4.53125 88.558594 4.234375 89.75 4.261719 C 90.585938 4.253906 91.414062 4.394531 92.199219 4.679688 C 92.945312 4.953125 93.625 5.382812 94.191406 5.941406 C 94.78125 6.539062 95.234375 7.257812 95.519531 8.050781 C 95.851562 9.003906 96.015625 10.007812 95.992188 11.019531 L 95.992188 12.03125 L 84.777344 12.03125 L 84.777344 9.746094 L 92.523438 9.746094 C 92.535156 9.253906 92.414062 8.765625 92.179688 8.332031 C 91.953125 7.929688 91.621094 7.59375 91.222656 7.367188 C 90.789062 7.125 90.300781 7.003906 89.808594 7.015625 C 89.289062 7.003906 88.773438 7.136719 88.324219 7.398438 C 87.902344 7.648438 87.558594 8.003906 87.320312 8.429688 C 87.074219 8.871094 86.945312 9.371094 86.945312 9.875 L 86.945312 12.039062 C 86.929688 12.628906 87.050781 13.214844 87.304688 13.746094 C 87.535156 14.210938 87.898438 14.597656 88.347656 14.855469 C 88.835938 15.125 89.390625 15.261719 89.949219 15.246094 C 90.328125 15.25 90.707031 15.191406 91.070312 15.070312 C 91.394531 14.964844 91.6875 14.785156 91.9375 14.550781 C 92.183594 14.316406 92.371094 14.023438 92.488281 13.703125 L 95.894531 13.929688 C 95.734375 14.722656 95.371094 15.460938 94.835938 16.070312 C 94.273438 16.703125 93.566406 17.1875 92.777344 17.492188 C 91.859375 17.84375 90.882812 18.015625 89.898438 18 Z M 89.898438 18 "/>
<path style=" stroke:none;fill-rule:nonzero;fill:rgb(8.235294%,44.313725%,98.039216%);fill-opacity:1;" d="M 121.714844 17.628906 L 114.703125 5.464844 C 114.675781 5.414062 114.621094 5.378906 114.558594 5.378906 C 114.5 5.378906 114.445312 5.414062 114.417969 5.464844 L 107.414062 17.628906 C 107.378906 17.6875 107.386719 17.765625 107.433594 17.816406 C 107.480469 17.871094 107.554688 17.886719 107.621094 17.855469 L 114.496094 14.832031 C 114.539062 14.8125 114.585938 14.8125 114.628906 14.832031 L 121.507812 17.855469 C 121.570312 17.886719 121.644531 17.871094 121.691406 17.816406 C 121.742188 17.765625 121.75 17.6875 121.714844 17.628906 Z M 121.714844 17.628906 "/>
<path style=" stroke:none;fill-rule:nonzero;fill:rgb(57.647059%,77.254902%,99.607843%);fill-opacity:1;" d="M 114.316406 0.351562 L 107.304688 12.515625 C 107.277344 12.566406 107.222656 12.597656 107.160156 12.597656 C 107.101562 12.597656 107.046875 12.566406 107.019531 12.515625 L 100.015625 0.351562 C 99.980469 0.292969 99.988281 0.214844 100.035156 0.160156 C 100.082031 0.109375 100.15625 0.09375 100.222656 0.121094 L 107.101562 3.148438 C 107.140625 3.167969 107.191406 3.167969 107.230469 3.148438 L 114.109375 0.121094 C 114.171875 0.09375 114.246094 0.109375 114.292969 0.164062 C 114.339844 0.214844 114.347656 0.289062 114.316406 0.351562 Z M 114.316406 0.351562 "/>
</g>
</svg>
