<svg width="140" height="34" viewBox="0 0 140 34" fill="none" xmlns="http://www.w3.org/2000/svg">
<mask id="mask0" mask-type="alpha" maskUnits="userSpaceOnUse" x="0" y="0" width="140" height="34">
<rect width="140" height="34" fill="#C4C4C4"/>
</mask>
<g mask="url(#mask0)">
<path d="M23.1879 29.7103H16.874L6.31391 13.9941V29.7103H0V4.23047H6.31391L16.874 20.0193V4.23047H23.1879V29.7103Z" fill="#EC7160"/>
<path d="M34.6348 4.22607V9.24053H23.8513V14.597H31.92V19.4107H23.8513V29.6894H17.4038V4.22607H34.6348Z" fill="#EC7160"/>
<path d="M50.649 4.22979V9.20235H43.7813V29.7096H37.4674V9.26652H30.5996V4.22979H50.649Z" fill="#3F3D56"/>
<path d="M60.1317 12.832C60.8702 11.7189 61.7933 10.8478 62.901 10.2186C64.0087 9.56532 65.2395 9.23865 66.5933 9.23865V15.8082H64.8579C63.2825 15.8082 62.101 16.147 61.3133 16.8245C60.5256 17.4779 60.1317 18.6393 60.1317 20.3089V29.7096H53.8178V9.45643H60.1317V12.832Z" fill="#3F3D56"/>
<path d="M68.3559 19.5467C68.3559 17.4658 68.7497 15.6389 69.5374 14.066C70.3497 12.4932 71.4451 11.2833 72.8236 10.4364C74.2021 9.58951 75.7405 9.16606 77.439 9.16606C78.8913 9.16606 80.159 9.45642 81.2421 10.0372C82.3498 10.6179 83.1991 11.3801 83.7899 12.3238V9.45643H90.1038V29.7096H83.7899V26.8422C83.1745 27.7859 82.3129 28.5482 81.2052 29.1289C80.1221 29.7096 78.8544 30 77.4021 30C75.7282 30 74.2021 29.5765 72.8236 28.7296C71.4451 27.8585 70.3497 26.6366 69.5374 25.0637C68.7497 23.4667 68.3559 21.6277 68.3559 19.5467ZM83.7899 19.583C83.7899 18.0344 83.3468 16.8124 82.4606 15.9171C81.5991 15.0218 80.5406 14.5742 79.2852 14.5742C78.0298 14.5742 76.959 15.0218 76.0729 15.9171C75.2113 16.7882 74.7805 17.9981 74.7805 19.5467C74.7805 21.0954 75.2113 22.3294 76.0729 23.2489C76.959 24.1442 78.0298 24.5919 79.2852 24.5919C80.5406 24.5919 81.5991 24.1442 82.4606 23.2489C83.3468 22.3536 83.7899 21.1317 83.7899 19.583Z" fill="#3F3D56"/>
<path d="M93.4162 19.5467C93.4162 17.4658 93.81 15.6389 94.5977 14.066C95.4101 12.4932 96.5055 11.2833 97.8839 10.4364C99.2624 9.58951 100.801 9.16606 102.499 9.16606C103.853 9.16606 105.084 9.44433 106.192 10.0009C107.324 10.5574 108.21 11.3075 108.85 12.2512L109.45 4.22916L115.164 0V29.7096H108.85V26.8059C108.259 27.7738 107.41 28.5482 106.302 29.1289C105.219 29.7096 103.952 30 102.499 30C100.801 30 99.2624 29.5765 97.8839 28.7296C96.5055 27.8585 95.4101 26.6366 94.5977 25.0637C93.81 23.4667 93.4162 21.6277 93.4162 19.5467ZM108.85 19.583C108.85 18.0344 108.407 16.8124 107.521 15.9171C106.659 15.0218 105.601 14.5742 104.346 14.5742C103.09 14.5742 102.019 15.0218 101.133 15.9171C100.272 16.7882 99.8409 17.9981 99.8409 19.5467C99.8409 21.0954 100.272 22.3294 101.133 23.2489C102.019 24.1442 103.09 24.5919 104.346 24.5919C105.601 24.5919 106.659 24.1442 107.521 23.2489C108.407 22.3536 108.85 21.1317 108.85 19.583Z" fill="#3F3D56"/>
<path d="M139.154 19.2564C139.154 19.8371 139.117 20.442 139.043 21.0712H124.754C124.852 22.3294 125.258 23.2973 125.972 23.9749C126.71 24.6282 127.609 24.9548 128.667 24.9548C130.243 24.9548 131.338 24.3015 131.954 22.9949H138.674C138.329 24.3257 137.701 25.5235 136.791 26.5882C135.904 27.6529 134.784 28.4877 133.431 29.0926C132.077 29.6975 130.563 30 128.889 30C126.87 30 125.074 29.5765 123.498 28.7296C121.923 27.8827 120.692 26.6729 119.806 25.1C118.92 23.5272 118.477 21.6882 118.477 19.583C118.477 17.4779 118.907 15.6389 119.769 14.066C120.655 12.4932 121.886 11.2833 123.461 10.4364C125.037 9.58951 126.846 9.16606 128.889 9.16606C130.883 9.16606 132.655 9.57741 134.206 10.4001C135.757 11.2228 136.963 12.3964 137.824 13.9208C138.711 15.4453 139.154 17.2238 139.154 19.2564ZM132.692 17.623C132.692 16.5584 132.323 15.7115 131.584 15.0823C130.846 14.4532 129.923 14.1386 128.815 14.1386C127.757 14.1386 126.858 14.4411 126.12 15.046C125.406 15.651 124.963 16.51 124.79 17.623H132.692Z" fill="#3F3D56"/>
<path d="M23.2959 9.21806L26.4652 4.21777H35.2961L32.0849 9.21806H23.2959Z" fill="#EC7160"/>
</g>
</svg>
