<svg width="40" height="40" viewBox="0 0 40 40" fill="none" xmlns="http://www.w3.org/2000/svg">
<path d="M19.3347 40C19.2038 40 19.0743 40 18.9434 40C18.6183 39.7833 18.5506 39.4386 18.4964 39.0894C18.1547 36.919 17.8116 34.7471 17.4744 32.5753C17.3405 31.7083 17.5527 30.9196 18.0765 30.2228C18.4347 29.7456 18.4392 29.6102 18.0253 29.1948C15.6141 26.7821 13.2029 24.3709 10.7902 21.9582C10.3657 21.5337 10.2559 21.5382 9.7667 21.904C9.14208 22.3721 8.43317 22.6475 7.65201 22.5331C5.34918 22.1975 3.05087 21.8257 0.752557 21.4615C0.460564 21.4148 0.139974 21.3576 0.0285953 21.019C-0.0842885 20.6803 0.142984 20.456 0.34166 20.2303C0.376277 20.1911 0.41541 20.1565 0.451533 20.1189C3.54455 17.0259 6.63456 13.9299 9.73058 10.8414C10.4696 10.1038 11.3591 9.85851 12.3781 10.0978C13.0238 10.2498 13.6785 10.3688 14.3091 10.5674C15.0211 10.7917 15.5704 10.6367 16.1168 10.1279C18.0448 8.33383 20.1159 6.71433 22.3058 5.25286C25.2905 3.26008 28.4016 1.51264 31.8829 0.526788C33.3158 0.121911 34.7697 -0.127939 36.2733 0.0662216C38.0509 0.294999 39.3152 1.39524 39.7291 3.14569C39.8299 3.57315 39.8811 4.01264 39.9563 4.44611C39.9563 4.7065 39.9563 4.96688 39.9563 5.22727C39.8961 5.67579 39.8525 6.12582 39.7742 6.56983C39.3889 8.76279 38.6213 10.8308 37.655 12.8251C35.593 17.0846 32.8703 20.8925 29.6779 24.3709C29.3468 24.7321 29.258 25.0798 29.3829 25.5388C29.5605 26.1905 29.699 26.8528 29.8585 27.509C30.1249 28.5972 29.8706 29.5274 29.0698 30.3251C26.1574 33.227 23.2541 36.1409 20.3447 39.0458C20.0211 39.3739 19.6734 39.6824 19.3347 40ZM34.276 9.98043C34.2595 7.67007 32.4232 5.84286 30.1249 5.84738C27.8296 5.85189 25.9828 7.69867 25.9783 9.99247C25.9738 12.2983 27.8507 14.1632 30.1565 14.1436C32.4654 14.124 34.2926 12.2772 34.276 9.98043Z" fill="#9F9F9F"/>
<path d="M3.95247 35.6412C4.03074 35.3191 4.11954 34.7637 4.29865 34.2384C5.29052 31.329 6.61954 28.5942 8.53555 26.1695C8.79293 25.8429 9.08492 25.5448 9.35885 25.2303C9.58763 24.9669 9.83748 24.9383 10.1084 25.1535C10.2409 25.2589 10.3688 25.3703 10.4877 25.4892C11.8694 26.8678 13.2481 28.248 14.6268 29.6282C14.7095 29.711 14.7908 29.7953 14.8661 29.8841C15.2198 30.307 15.1912 30.4711 14.7983 30.87C13.3038 32.3916 11.5307 33.4362 9.53344 34.1797C7.85674 34.8028 6.23573 35.5765 4.59365 36.2914C4.0804 36.5187 3.93742 36.4329 3.95247 35.6412Z" fill="#9F9F9F"/>
</svg>
